<svg xmlns="http://www.w3.org/2000/svg" xmlns:xlink="http://www.w3.org/1999/xlink" xmlns:lucid="lucid" width="1645.8" height="1526"><g transform="translate(1098.648098148154 981.5)" lucid:page-tab-id="0_0"><path d="M-1500-1000H500v2000h-2000z" fill="#fff"/><path d="M-392.67-473a47 47 0 0 1 47-47H-247a47 47 0 0 1 47 47v36a47 47 0 0 1-47 47h-98.67a47 47 0 0 1-47-47z" stroke="#5e5e5e" stroke-width="3" fill="#008a0e"/><use xlink:href="#a" transform="matrix(1,0,0,1,-387.66666666666674,-515) translate(63.13580246913581 62.77777777777778)"/><path d="M-248.17-551.83c0 26.6-21.56 48.16-48.16 48.16-26.6 0-48.17-21.56-48.17-48.16 0-26.6 21.56-48.17 48.17-48.17 26.6 0 48.16 21.57 48.16 48.17z" stroke="#5e5e5e" stroke-width="3" fill="#008a0e"/><path d="M-296.33-246.33V-220" stroke="#5e5e5e" stroke-width="2" fill="none"/><path d="M-295.36-246.3h-1.95v-1.03h1.94z" stroke="#5e5e5e" stroke-width=".05" fill="#5e5e5e"/><path d="M-296.33-204.74l-4.64-14.26h9.27z" stroke="#5e5e5e" stroke-width="2" fill="#5e5e5e"/><path d="M-296.33-387.5v43.83" stroke="#5e5e5e" stroke-width="2" fill="none"/><path d="M-295.36-387.47h-1.95v-1.03h1.94zM-295.36-342.67h-1.95v-1.02h1.94z" stroke="#5e5e5e" stroke-width=".05" fill="#5e5e5e"/><path d="M-454.5-194a6 6 0 0 1 6-6h304.33a6 6 0 0 1 6 6V-6a6 6 0 0 1-6 6H-448.5a6 6 0 0 1-6-6z" stroke="#5e5e5e" stroke-width="3" fill="#008a0e"/><use xlink:href="#b" transform="matrix(1,0,0,1,-449.50000000000006,-195) translate(41.277777777777786 100.90277777777777)"/><use xlink:href="#c" transform="matrix(1,0,0,1,-449.50000000000006,-195) translate(127.57407407407408 100.90277777777777)"/><use xlink:href="#d" transform="matrix(1,0,0,1,-449.50000000000006,-195) translate(216.4012345679012 100.90277777777777)"/><path d="M-295.36 320h-1.95v-9.62h1.94zm0-19.24h-1.95V281.5h1.94zm0-28.87h-1.95v-19.25h1.94zm0-28.87h-1.95V223.8h1.94zm0-28.87h-1.95v-19.24h1.94zm0-28.86h-1.95v-19.24h1.94zm0-47.7h-1.95v-.4h1.94zm0-10.02h-1.95v-19.25h1.94zm0-28.87h-1.95V79.48h1.94zm0-28.85h-1.95V50.6h1.94zm0-28.86l-1.95-.02V21.75h1.94zm0-28.88h-1.95V2.5h1.94z" stroke="#5e5e5e" stroke-width=".05" fill="#5e5e5e"/><path d="M-295.36 2.53h-1.95V1.5h1.94z" fill="#5e5e5e"/><path stroke="#5e5e5e" stroke-width=".05" fill="#5e5e5e"/><path d="M-296.33 335.26l-4.64-14.26h9.27z" fill="#5e5e5e"/><path d="M-296.33 338.42l-5.98-18.4h11.94zm-3.3-16.45l3.3 10.14 3.3-10.13z" stroke="#5e5e5e" stroke-width=".05" fill="#5e5e5e"/><use xlink:href="#e" transform="matrix(1,0,0,1,-408.1851851851852,137.58884702511233) translate(0 14.222222222222223)"/><use xlink:href="#f" transform="matrix(1,0,0,1,-408.1851851851852,137.58884702511233) translate(52.296296296296305 14.222222222222223)"/><use xlink:href="#g" transform="matrix(1,0,0,1,-408.1851851851852,137.58884702511233) translate(160.69135802469137 14.222222222222223)"/><path d="M-416.33 346a6 6 0 0 1 6-6h228a6 6 0 0 1 6 6v148a6 6 0 0 1-6 6h-228a6 6 0 0 1-6-6z" stroke="#fff" stroke-width="3" fill="#979ea8"/><use xlink:href="#h" transform="matrix(1,0,0,1,-411.33333333333337,345) translate(37.37654320987653 64.65277777777777)"/><use xlink:href="#i" transform="matrix(1,0,0,1,-411.33333333333337,345) translate(167.9320987654321 64.65277777777777)"/><use xlink:href="#j" transform="matrix(1,0,0,1,-411.33333333333337,345) translate(54.59876543209875 91.31944444444446)"/><path d="M-324.5-434a6 6 0 0 1 6-6h44.33a6 6 0 0 1 6 6v8a6 6 0 0 1-6 6h-44.33a6 6 0 0 1-6-6z" stroke="#000" stroke-opacity="0" stroke-width="3" fill="#fff" fill-opacity="0"/><use xlink:href="#k" transform="matrix(1,0,0,1,-319.50000000000006,-435) translate(6.969135802469147 7.111111111111107)"/><use xlink:href="#l" transform="matrix(1,0,0,1,-319.50000000000006,-435) translate(23.5 17.777777777777768)"/><path d="M-454.5-74a6 6 0 0 1 6-6H-146a6 6 0 0 1 6 6v8a6 6 0 0 1-6 6h-302.5a6 6 0 0 1-6-6z" stroke="#000" stroke-opacity="0" stroke-width="3" fill="#fff" fill-opacity="0"/><use xlink:href="#m" transform="matrix(1,0,0,1,-449.50000000000006,-75) translate(116.48765432098767 7.111111111111107)"/><use xlink:href="#n" transform="matrix(1,0,0,1,-449.50000000000006,-75) translate(156.43827160493825 7.111111111111107)"/><use xlink:href="#l" transform="matrix(1,0,0,1,-449.50000000000006,-75) translate(152.5 17.777777777777768)"/><path d="M-960-473a47 47 0 0 1 47-47h98.67a47 47 0 0 1 47 47v36a47 47 0 0 1-47 47H-913a47 47 0 0 1-47-47z" stroke="#5e5e5e" stroke-width="3" fill="#008a0e"/><use xlink:href="#o" transform="matrix(1,0,0,1,-955,-515) translate(8.876543209876544 62.77777777777778)"/><use xlink:href="#p" transform="matrix(1,0,0,1,-955,-515) translate(117.4567901234568 62.77777777777778)"/><path d="M-812.67-551.83c0 26.6-21.56 48.16-48.16 48.16-26.6 0-48.17-21.56-48.17-48.16 0-26.6 21.57-48.17 48.17-48.17s48.16 21.57 48.16 48.17z" stroke="#5e5e5e" stroke-width="3" fill="#008a0e"/><path d="M-518.08-455h24.54a6 6 0 0 1 6 6v348a6 6 0 0 0 6 6h7.04" stroke="#5e5e5e" stroke-width="2" fill="none"/><path d="M-518.06-454.02h-1.02v-1.96h1.02z" stroke="#5e5e5e" stroke-width=".05" fill="#5e5e5e"/><path d="M-459.24-95l-14.26 4.64v-9.28z" stroke="#5e5e5e" stroke-width="2" fill="#5e5e5e"/><path d="M-764.83-455H-741" stroke="#5e5e5e" stroke-width="2" fill="none"/><path d="M-764.8-454.02h-1.03v-1.96h1.02zM-740-454.02h-1.03v-1.96h1.03z" stroke="#5e5e5e" stroke-width=".05" fill="#5e5e5e"/><path d="M-891.83-434a6 6 0 0 1 6-6h44.33a6 6 0 0 1 6 6v8a6 6 0 0 1-6 6h-44.33a6 6 0 0 1-6-6z" stroke="#000" stroke-opacity="0" stroke-width="3" fill="#fff" fill-opacity="0"/><use xlink:href="#q" transform="matrix(1,0,0,1,-886.8333333333333,-435) translate(6.969135802469147 7.111111111111107)"/><use xlink:href="#l" transform="matrix(1,0,0,1,-886.8333333333333,-435) translate(23.5 17.777777777777768)"/><path d="M-416.33-336.67a6 6 0 0 1 6-6h228a6 6 0 0 1 6 6v83.34a6 6 0 0 1-6 6h-228a6 6 0 0 1-6-6z" stroke="#000" stroke-opacity="0" stroke-width="3" fill="#fff" fill-opacity="0"/><use xlink:href="#r" transform="matrix(1,0,0,1,-411.33333333333337,-337.6666666666667) translate(38.1358024691358 16.90972222222222)"/><use xlink:href="#s" transform="matrix(1,0,0,1,-411.33333333333337,-337.6666666666667) translate(128.7530864197531 16.90972222222222)"/><use xlink:href="#t" transform="matrix(1,0,0,1,-411.33333333333337,-337.6666666666667) translate(3.1234567901234556 38.24305555555556)"/><use xlink:href="#u" transform="matrix(1,0,0,1,-411.33333333333337,-337.6666666666667) translate(116.4567901234568 38.24305555555556)"/><use xlink:href="#v" transform="matrix(1,0,0,1,-411.33333333333337,-337.6666666666667) translate(149.04938271604937 38.24305555555556)"/><use xlink:href="#w" transform="matrix(1,0,0,1,-411.33333333333337,-337.6666666666667) translate(206.18518518518516 38.24305555555556)"/><use xlink:href="#x" transform="matrix(1,0,0,1,-411.33333333333337,-337.6666666666667) translate(25.765432098765416 59.57638888888889)"/><use xlink:href="#u" transform="matrix(1,0,0,1,-411.33333333333337,-337.6666666666667) translate(81.96296296296295 59.57638888888889)"/><use xlink:href="#y" transform="matrix(1,0,0,1,-411.33333333333337,-337.6666666666667) translate(114.55555555555554 59.57638888888889)"/><use xlink:href="#z" transform="matrix(1,0,0,1,-411.33333333333337,-337.6666666666667) translate(194.35802469135803 59.57638888888889)"/><use xlink:href="#v" transform="matrix(1,0,0,1,-411.33333333333337,-337.6666666666667) translate(21.395061728395063 80.90972222222223)"/><use xlink:href="#A" transform="matrix(1,0,0,1,-411.33333333333337,-337.6666666666667) translate(78.53086419753087 80.90972222222223)"/><use xlink:href="#B" transform="matrix(1,0,0,1,-411.33333333333337,-337.6666666666667) translate(104.16049382716051 80.90972222222223)"/><path d="M-740-514a6 6 0 0 1 6-6h208.92a6 6 0 0 1 6 6v118a6 6 0 0 1-6 6H-734a6 6 0 0 1-6-6z" stroke="#000" stroke-opacity="0" stroke-width="3" fill="#fff" fill-opacity="0"/><use xlink:href="#r" transform="matrix(1,0,0,1,-735,-515) translate(21.228395061728378 14.222222222222223)"/><use xlink:href="#C" transform="matrix(1,0,0,1,-735,-515) translate(111.84567901234567 14.222222222222223)"/><use xlink:href="#z" transform="matrix(1,0,0,1,-735,-515) translate(179.89506172839506 14.222222222222223)"/><use xlink:href="#D" transform="matrix(1,0,0,1,-735,-515) translate(7.870370370370367 35.55555555555556)"/><use xlink:href="#t" transform="matrix(1,0,0,1,-735,-515) translate(58.19135802469136 35.55555555555556)"/><use xlink:href="#E" transform="matrix(1,0,0,1,-735,-515) translate(171.5246913580247 35.55555555555556)"/><use xlink:href="#F" transform="matrix(1,0,0,1,-735,-515) translate(17.771604938271594 56.88888888888889)"/><use xlink:href="#A" transform="matrix(1,0,0,1,-735,-515) translate(58.216049382716044 56.88888888888889)"/><use xlink:href="#G" transform="matrix(1,0,0,1,-735,-515) translate(83.84567901234567 56.88888888888889)"/><use xlink:href="#z" transform="matrix(1,0,0,1,-735,-515) translate(183.35185185185185 56.88888888888889)"/><use xlink:href="#F" transform="matrix(1,0,0,1,-735,-515) translate(24.117283950617278 78.22222222222223)"/><use xlink:href="#A" transform="matrix(1,0,0,1,-735,-515) translate(64.56172839506172 78.22222222222223)"/><use xlink:href="#H" transform="matrix(1,0,0,1,-735,-515) translate(90.19135802469135 78.22222222222223)"/><use xlink:href="#I" transform="matrix(1,0,0,1,-735,-515) translate(157.30246913580248 78.22222222222223)"/><use xlink:href="#J" transform="matrix(1,0,0,1,-735,-515) translate(23.253086419753075 99.55555555555557)"/><use xlink:href="#K" transform="matrix(1,0,0,1,-735,-515) translate(156.24074074074076 99.55555555555557)"/><use xlink:href="#L" transform="matrix(1,0,0,1,-735,-515) translate(51.32716049382715 120.88888888888891)"/><use xlink:href="#M" transform="matrix(1,0,0,1,-735,-515) translate(130.19135802469134 120.88888888888891)"/><path d="M180-473a47 47 0 0 1 47-47h98.67a47 47 0 0 1 47 47v36a47 47 0 0 1-47 47H227a47 47 0 0 1-47-47z" stroke="#5e5e5e" stroke-width="3" fill="#008a0e"/><use xlink:href="#N" transform="matrix(1,0,0,1,185,-515) translate(10.172839506172835 62.77777777777778)"/><use xlink:href="#O" transform="matrix(1,0,0,1,185,-515) translate(69.37037037037037 62.77777777777778)"/><path d="M324.5-551.83c0 26.6-21.56 48.16-48.17 48.16-26.6 0-48.16-21.56-48.16-48.16 0-26.6 21.56-48.17 48.16-48.17 26.6 0 48.17 21.57 48.17 48.17z" stroke="#5e5e5e" stroke-width="3" fill="#008a0e"/><path d="M-61-455h-33a6 6 0 0 0-6 6v343a6 6 0 0 1-6 6h-12.17" stroke="#5e5e5e" stroke-width="2" fill="none"/><path d="M-60-454.02h-1.03v-1.96H-60z" stroke="#5e5e5e" stroke-width=".05" fill="#5e5e5e"/><path d="M-133.43-100l14.27-4.64v9.28z" stroke="#5e5e5e" stroke-width="2" fill="#5e5e5e"/><path d="M247.25-434a6 6 0 0 1 6-6h44.33a6 6 0 0 1 6 6v8a6 6 0 0 1-6 6h-44.33a6 6 0 0 1-6-6z" stroke="#000" stroke-opacity="0" stroke-width="3" fill="#fff" fill-opacity="0"/><use xlink:href="#P" transform="matrix(1,0,0,1,252.25000000000006,-435) translate(6.969135802469147 7.111111111111107)"/><use xlink:href="#Q" transform="matrix(1,0,0,1,252.25000000000006,-435) translate(23.5 17.777777777777768)"/><path d="M-60-526.67a6 6 0 0 1 6-6h179.75a6 6 0 0 1 6 6v143.34a6 6 0 0 1-6 6H-54a6 6 0 0 1-6-6z" stroke="#000" stroke-opacity="0" stroke-width="3" fill="#fff" fill-opacity="0"/><use xlink:href="#r" transform="matrix(1,0,0,1,-55,-527.6666666666667) translate(6.728395061728378 14.222222222222223)"/><use xlink:href="#C" transform="matrix(1,0,0,1,-55,-527.6666666666667) translate(97.34567901234567 14.222222222222223)"/><use xlink:href="#z" transform="matrix(1,0,0,1,-55,-527.6666666666667) translate(165.39506172839506 14.222222222222223)"/><use xlink:href="#D" transform="matrix(1,0,0,1,-55,-527.6666666666667) translate(11.641975308641975 35.55555555555556)"/><use xlink:href="#R" transform="matrix(1,0,0,1,-55,-527.6666666666667) translate(61.96296296296297 35.55555555555556)"/><use xlink:href="#u" transform="matrix(1,0,0,1,-55,-527.6666666666667) translate(1.2962962962962763 56.88888888888889)"/><use xlink:href="#y" transform="matrix(1,0,0,1,-55,-527.6666666666667) translate(33.88888888888887 56.88888888888889)"/><use xlink:href="#S" transform="matrix(1,0,0,1,-55,-527.6666666666667) translate(113.69135802469135 56.88888888888889)"/><use xlink:href="#T" transform="matrix(1,0,0,1,-55,-527.6666666666667) translate(128.50617283950618 56.88888888888889)"/><use xlink:href="#A" transform="matrix(1,0,0,1,-55,-527.6666666666667) translate(5.222222222222214 78.22222222222223)"/><use xlink:href="#U" transform="matrix(1,0,0,1,-55,-527.6666666666667) translate(30.851851851851848 78.22222222222223)"/><use xlink:href="#E" transform="matrix(1,0,0,1,-55,-527.6666666666667) translate(145.17283950617286 78.22222222222223)"/><use xlink:href="#V" transform="matrix(1,0,0,1,-55,-527.6666666666667) translate(10.209876543209873 99.55555555555557)"/><use xlink:href="#A" transform="matrix(1,0,0,1,-55,-527.6666666666667) translate(46.654320987654316 99.55555555555557)"/><use xlink:href="#W" transform="matrix(1,0,0,1,-55,-527.6666666666667) translate(72.28395061728395 99.55555555555557)"/><use xlink:href="#D" transform="matrix(1,0,0,1,-55,-527.6666666666667) translate(23.469135802469125 120.88888888888891)"/><use xlink:href="#X" transform="matrix(1,0,0,1,-55,-527.6666666666667) translate(73.79012345679013 120.88888888888891)"/><use xlink:href="#Y" transform="matrix(1,0,0,1,-55,-527.6666666666667) translate(137.8395061728395 120.88888888888891)"/><use xlink:href="#Z" transform="matrix(1,0,0,1,-55,-527.6666666666667) translate(43.71604938271605 142.22222222222226)"/><path d="M-291.7 535.46l.07.83.2.75.3.73.4.67.5.6.6.5.68.43.73.3.77.18.82.06h10.1v1.96h-10.18l-1.06-.1-1.06-.24-1-.42-.95-.58-.83-.7-.7-.84-.58-.93-.42-1-.26-1.08-.08-1.06V524.5h1.95zm45.63 7h-20.3v-1.94h20.3zm30.44 0h-20.3v-1.94h20.3zm30.44 0h-20.28v-1.94h20.3zm30.46 0h-20.3v-1.94h20.3zm30.44 0h-20.3v-1.94h20.3zm30.45 0h-20.3v-1.94h20.3zm30.44 0h-20.3v-1.94h20.3zm30.44 0h-20.3v-1.94h20.3zm30.44 0h-20.3v-1.94h20.3zm30.45 0H7.63v-1.94h20.3zm30.44 0h-20.3v-1.94h20.3zm30.45 0h-20.3v-1.94h20.3zm30.44 0h-20.3v-1.94h20.3zm30.44 0h-20.3v-1.94h20.3zm30.45 0h-20.3v-1.94h20.3zm30.44 0h-20.3v-1.94h20.3zm30.44 0h-20.3v-1.94h20.3zm30.44 0h-20.3v-1.94h20.3zm30.45 0h-20.3v-1.94h20.3zm30.44 0h-20.3v-1.94h20.3zm30.44 0h-20.28v-1.94h20.3zm30.46 0h-20.3v-1.94h20.3zm30.44 0h-20.3v-1.94h20.3zm27.28-6.92l-.1 1.05-.24 1.06-.42 1-.58.94-.7.83-.84.72-.93.57-1 .42-1.08.25-1.06.08h-10.2v-1.96h10.12l.83-.06.75-.18.73-.3.67-.42.6-.5.5-.6.43-.68.3-.73.18-.76.06-.84v-10.04h1.96zm0-20.2h-1.96v-20.16h1.96zm-742.67-1.84h-1.94v-11h1.95zm742.67-28.4h-1.95v-20.15h1.96zm0-30.23h-1.95V434.7h1.96zm0-30.24h-1.95v-20.16h1.96zm0-30.24h-1.95v-20.17h1.96zm0-30.25h-1.95V344h1.96zm0-30.23h-1.95v-20.16h1.96zm0-30.24h-1.95v-20.16h1.96zm0-30.24h-1.95v-20.16h1.96zm0-30.24h-1.95v-20.15h1.96zm0-30.23h-1.95V192.8h1.96zm0-30.24h-1.95v-20.16h1.96zm0-30.24h-1.95v-20.17h1.96zm0-30.25h-1.95V102.1h1.96zm0-30.23h-1.95V71.86h1.96zm0-30.24h-1.95V41.62h1.96zm0-30.24h-1.95V11.38h1.96zm0-30.24h-1.95v-20.15h1.96zm0-30.23h-1.95V-49.1h1.96zm0-30.24h-1.95v-20.16h1.96zm0-30.24h-1.95v-20.17h1.96zm0-30.25h-1.95v-7.68h1.96zm0-30.23h-1.95v-20.16h1.96zm0-30.24h-1.95v-20.16h1.96zm0-30.24h-1.95v-20.16h1.96zm0-30.24h-1.95v-20.15h1.96zm0-30.23h-1.95V-291h1.96zm0-30.24h-1.95v-20.16h1.96zm0-30.24h-1.95v-20.17h1.96zm0-30.25h-1.95v-20.15h1.96zm0-30.23h-1.95v-20.16h1.96zm0-30.24h-1.95v-20.16h1.96zm0-30.24h-1.95v-20.16h1.96zm0-30.24h-1.95v-20.15h1.96zm0-30.23h-1.95v-20.16h1.96zm0-30.24h-1.95v-20.16h1.96zm0-30.24h-1.95v-20.17h1.96zm0-30.25h-1.95v-20.15h1.96zM-295.36-620h-1.95v-9h1.94zm746.34-13.68h-1.96v-20.16h1.96zM-295.37-638h-1.95v-18h1.94zm740.45-42.9l1.06.26 1 .42.94.58.83.7.7.84.6.93.4 1 .26 1.08.08 1.06v10.12h-1.96v-10.04l-.06-.83-.18-.75-.3-.73-.42-.67-.5-.6-.6-.5-.68-.43-.73-.3-.76-.18-.84-.06H433.8V-681h10.24zM-280.14-679h-10.17l-.82.06-.76.18-.73.3-.7.42-.58.5-.52.6-.4.68-.3.73-.2.76-.06.84v8.96h-1.95v-9.04l.07-1.05.26-1.06.42-1 .57-.94.7-.83.84-.72.94-.57 1-.42 1.07-.25 1.06-.08h10.24zm703.73 0h-20.4V-681h20.4zm-30.6 0h-20.4V-681H393zm-30.6 0H342V-681h20.4zm-30.6 0h-20.4V-681h20.4zm-30.6 0h-20.38V-681h20.4zm-30.58 0h-20.4V-681h20.4zm-30.6 0h-20.4V-681h20.4zm-30.6 0h-20.4V-681h20.4zm-30.6 0h-20.4V-681h20.4zm-30.6 0h-20.4V-681h20.4zm-30.6 0h-20.4V-681h20.4zm-30.6 0h-20.4V-681h20.4zm-30.58 0h-20.4V-681h20.4zm-30.6 0H5.44V-681h20.4zm-30.6 0h-20.4V-681h20.4zm-30.6 0h-20.4V-681h20.4zm-30.6 0h-20.4V-681h20.4zm-30.6 0h-20.4V-681h20.4zm-30.6 0h-20.4V-681h20.4zm-30.6 0h-20.38V-681h20.4zm-30.58 0h-20.4V-681h20.4zm-30.6 0h-20.4V-681h20.4zm-30.6 0h-20.4V-681h20.4z" stroke="#5e5e5e" stroke-width=".05" fill="#5e5e5e"/><path d="M-291.7 502.53h-1.94v-1.03h1.95z" fill="#5e5e5e"/><path stroke="#5e5e5e" stroke-width=".05" fill="#5e5e5e"/><path d="M-296.33-604.74l-4.64-14.26h9.27z" fill="#5e5e5e"/><path d="M-296.33-601.58l-5.98-18.4h11.94zm-3.3-16.45l3.3 10.14 3.3-10.13z" stroke="#5e5e5e" stroke-width=".05" fill="#5e5e5e"/><g><use xlink:href="#aa" transform="matrix(1,0,0,1,355.85185185185185,-148.66666666666677) translate(0 14.222222222222223)"/><use xlink:href="#ab" transform="matrix(1,0,0,1,355.85185185185185,-148.66666666666677) translate(52.296296296296305 14.222222222222223)"/><use xlink:href="#ac" transform="matrix(1,0,0,1,355.85185185185185,-148.66666666666677) translate(150.8148148148148 14.222222222222223)"/></g><path d="M-163.96 420.98h-9.87v-1.96h9.87zm29.6 0h-19.73v-1.96h19.75zm29.62 0h-19.74v-1.96h19.74zm29.6 0h-19.73v-1.96h19.74zm29.62 0h-19.74v-1.96h19.74zm29.6 0h-19.73v-1.96h19.74zm29.62 0H-6.04v-1.96H13.7zm29.6 0H23.58v-1.96H43.3zm29.63 0H53.18v-1.96h19.75zm29.6 0H82.8v-1.96h19.74zm29.62 0H112.4v-1.96h19.75zm29.6 0h-19.73v-1.96h19.74zm29.62 0h-19.74v-1.96h19.74zm29.6 0h-19.73v-1.96h19.74zm29.62 0h-19.75v-1.96h19.74zm26.7-6.94l-.07 1.05-.26 1.06-.42 1-.57.94-.7.83-.84.7-.94.6-1 .4-1.07.26-1.06.08h-9.9v-1.96h9.82l.82-.06.76-.18.73-.3.7-.42.58-.5.52-.6.4-.68.3-.73.2-.76.06-.84v-10h1.95zm0-20.14h-1.94v-20.1h1.95zm0-30.16h-1.94v-20.1h1.95zm0-30.15h-1.94v-20.1h1.95zm0-30.16h-1.94v-20.1h1.95zm0-30.16h-1.94v-20.1h1.95zm0-30.15h-1.94v-20.1h1.95zm0-30.16h-1.94v-20.1h1.95zm0-30.15h-1.94v-20.1h1.95zm0-30.15h-1.94v-20.1h1.95zm0-30.16h-1.94v-20.1h1.95zm0-30.14h-1.94v-20.1h1.95zm0-30.15h-1.94V42.1h1.95zm0-30.15h-1.94v-20.1h1.95zm0-30.15h-1.94v-13.67h1.95zm0-35h-1.94v-15.26h1.95zm0-25.3h-1.94v-20.1h1.95zm0-30.16h-1.94v-20.1h1.95zm0-30.16h-1.94v-20.1h1.95zm0-30.15h-1.94v-20.1h1.95zm0-30.15h-1.94v-20.1h1.95zm0-30.16h-1.94v-20.1h1.95zm0-30.15h-1.94v-20.1h1.95zm0-30.16h-1.94v-20.1h1.95zm0-30.14h-1.94v-20.1h1.95zm0-30.15h-1.94v-20.1h1.95zm0-30.15h-1.94V-370h1.95z" stroke="#5e5e5e" stroke-width=".05" fill="#5e5e5e"/><path d="M-173.8 420.98h-1.03v-1.96h1.02z" fill="#5e5e5e"/><path stroke="#5e5e5e" stroke-width=".05" fill="#5e5e5e"/><path d="M280.97-371h-9.27l4.63-14.26z" fill="#5e5e5e"/><path d="M282.3-370.02h-11.94l5.97-18.4zm-9.26-1.95h6.6l-3.3-10.14z" stroke="#5e5e5e" stroke-width=".05" fill="#5e5e5e"/><g><use xlink:href="#aa" transform="matrix(1,0,0,1,182.18518518518522,-33.10343229411738) translate(0 14.222222222222223)"/><use xlink:href="#ab" transform="matrix(1,0,0,1,182.18518518518522,-33.10343229411738) translate(52.296296296296305 14.222222222222223)"/><use xlink:href="#ac" transform="matrix(1,0,0,1,182.18518518518522,-33.10343229411738) translate(150.8148148148148 14.222222222222223)"/></g><path d="M-418.83 420.98h-9.75v-1.96h9.75zm-19.5 0h-19.5v-1.96h19.5zm-29.26 0h-19.5v-1.96h19.5zm-29.25 0h-19.5v-1.96h19.5zm-29.25 0h-19.5v-1.96h19.5zm-29.26 0h-19.5v-1.96h19.5zm-29.25 0h-19.52v-1.96h19.5zm-29.27 0h-19.5v-1.96h19.5zm-29.26 0h-19.5v-1.96h19.5zm-29.25 0h-19.5v-1.96h19.5zm-29.26 0h-19.5v-1.96h19.5zm-29.25 0h-19.5v-1.96h19.5zm-29.25 0h-19.5v-1.96h19.5zm-29.25 0h-19.5v-1.96h19.5zm-29.26 0h-19.5v-1.96h19.5zm-44.03-7.02l.07.83.2.75.3.73.4.67.5.6.6.5.68.43.73.3.77.18.82.06h9.72v1.96h-9.8l-1.06-.1-1.06-.24-1-.42-.95-.58-.83-.7-.7-.84-.58-.93-.42-1-.26-1.08-.08-1.06v-10.1h1.95zm0-20.06h-1.94v-20.1h1.95zm0-30.16h-1.94v-20.1h1.95zm0-30.15h-1.94v-20.1h1.95zm0-30.16h-1.94v-20.1h1.95zm0-30.16h-1.94v-20.1h1.95zm0-30.15h-1.94v-20.1h1.95zm0-30.16h-1.94v-20.1h1.95zm0-30.15h-1.94v-20.1h1.95zm0-30.15h-1.94v-20.1h1.95zm0-30.16h-1.94v-20.1h1.95zm0-30.14h-1.94v-20.1h1.95zm0-30.15h-1.94V42.1h1.95zm0-30.15h-1.94v-20.1h1.95zm0-30.15h-1.94v-20.1h1.95zm0-30.15h-1.94v-20.1h1.95zm0-30.16h-1.94v-14.3h1.95zm0-35.65h-1.94v-14.62h1.95zm0-24.67h-1.94v-20.1h1.95zm0-30.15h-1.94v-20.1h1.95zm0-30.15h-1.94v-20.1h1.95zm0-30.16h-1.94v-20.1h1.95zm0-30.15h-1.94v-20.1h1.95zm0-30.16h-1.94v-20.1h1.95zm0-30.14h-1.94v-20.1h1.95zm0-30.15h-1.94v-20.1h1.95zm0-30.15h-1.94V-370h1.95z" stroke="#5e5e5e" stroke-width=".05" fill="#5e5e5e"/><path d="M-417.83 420.98h-1.03v-1.96h1.03z" fill="#5e5e5e"/><path stroke="#5e5e5e" stroke-width=".05" fill="#5e5e5e"/><path d="M-859.03-371h-9.27l4.63-14.26z" fill="#5e5e5e"/><path d="M-857.7-370.02h-11.94l5.97-18.4zm-9.26-1.95h6.6l-3.3-10.14z" stroke="#5e5e5e" stroke-width=".05" fill="#5e5e5e"/><g><use xlink:href="#e" transform="matrix(1,0,0,1,-957.8148148148148,-94.0445567097925) translate(0 14.222222222222223)"/><use xlink:href="#ad" transform="matrix(1,0,0,1,-957.8148148148148,-94.0445567097925) translate(52.296296296296305 14.222222222222223)"/><use xlink:href="#ae" transform="matrix(1,0,0,1,-957.8148148148148,-94.0445567097925) translate(150.8148148148148 14.222222222222223)"/></g><path d="M177.5-455h-44.75" stroke="#5e5e5e" stroke-width="2" fill="none"/><path d="M178.5-454.02h-1.03v-1.96h1.03zM132.78-454.02h-1.03v-1.96h1.03z" stroke="#5e5e5e" stroke-width=".05" fill="#5e5e5e"/><path d="M-760 126a6 6 0 0 1 6-6h228a6 6 0 0 1 6 6v148a6 6 0 0 1-6 6h-228a6 6 0 0 1-6-6z" stroke="#fff" stroke-width="3" fill="#979ea8"/><g><use xlink:href="#h" transform="matrix(1,0,0,1,-755,125) translate(37.37654320987653 64.65277777777777)"/><use xlink:href="#i" transform="matrix(1,0,0,1,-755,125) translate(167.9320987654321 64.65277777777777)"/><use xlink:href="#af" transform="matrix(1,0,0,1,-755,125) translate(39.13580246913581 91.31944444444446)"/></g><path d="M-639.02 109.5H-641v-9.38h1.96zm0-18.77H-641V71.95h1.96zm0-28.17H-641V43.78h1.96zm0-45.23H-641v-1.7l1.96-.02zm0-11.1H-641v-18.78h1.96zm0-28.17H-641v-18.78h1.96zm14.85-42.6l-9.8.02-.82.06-.75.18-.73.3-.67.42-.6.5-.5.6-.43.68-.3.73-.18.76-.06.84v9.35H-641v-9.44l.1-1.05.24-1.06.42-1 .58-.94.7-.83.84-.7.93-.6 1-.4 1.08-.26 1.06-.07h9.87zm29.5.02h-19.66v-1.95h19.66zm29.5 0h-19.66v-1.95h19.66zm29.5 0h-19.66v-1.95h19.66zm29.5 0h-19.66v-1.95h19.66zm29.5 0h-19.66v-1.95h19.66zm19.67 0h-9.83v-1.95h9.83z" stroke="#5e5e5e" stroke-width=".05" fill="#5e5e5e"/><path d="M-640 116.54l-7.64-12.92h15.28z" fill="#5e5e5e"/><path d="M-640 118.45l-9.35-15.8h18.7zm-5.93-13.85l5.93 10.02 5.93-10.02z" stroke="#5e5e5e" stroke-width=".05" fill="#5e5e5e"/><path d="M-456-64.53h-1.03v-1.94h1.03z" fill="#5e5e5e"/><path stroke="#5e5e5e" stroke-width=".05" fill="#5e5e5e"/><g><use xlink:href="#ag" transform="matrix(1,0,0,1,-776,17.333333333333332) translate(0 14.222222222222223)"/><use xlink:href="#ah" transform="matrix(1,0,0,1,-776,17.333333333333332) translate(66.12345679012347 14.222222222222223)"/><use xlink:href="#ai" transform="matrix(1,0,0,1,-776,17.333333333333332) translate(81.87654320987656 14.222222222222223)"/><use xlink:href="#g" transform="matrix(1,0,0,1,-776,17.333333333333332) translate(208.98765432098767 14.222222222222223)"/></g><path d="M-762.5 200.97h-9.7v-1.94h9.7zm-19.42 0h-19.4v-1.94h19.4zm-29.12 0h-19.42v-1.94h19.42zm-29.13 0h-19.4v-1.94h19.4zm-29.12 0h-19.4v-1.94h19.4zm-29.12 0h-19.4v-1.94h19.4zm-29.12 0h-19.42v-1.94h19.42zm-29.13 0h-19.4v-1.94h19.4zm-43.86-7l.07.82.18.75.3.73.42.67.5.6.6.5.68.42.73.3.76.2.84.06h9.67v1.94h-9.74l-1.05-.08-1.06-.26-1-.42-.94-.57-.83-.72-.72-.83-.57-.93-.42-1-.25-1.08-.08-1.06V183.8h1.96zm0-20.38h-1.95v-20.42h1.96zm0-30.63h-1.95v-20.4h1.96zm0-30.62h-1.95v-20.4h1.96zm0-30.62h-1.95v-20.4h1.96zm0-30.62h-1.95V30.7h1.96zm0-30.6h-1.95V.07h1.96zm0-30.63h-1.95v-20.4h1.96zm0-30.62h-1.95v-20.4h1.96zm0-30.6l-1.95-.02v-20.4h1.96zm0-30.63h-1.95v-19.35h1.96zm0-40.7h-1.95V-153h1.96zm0-20.54h-1.95v-20.4h1.96zm0-30.62h-1.95v-20.4h1.96zm0-30.62h-1.95v-20.4h1.96zm0-30.62h-1.95v-20.4h1.96zm0-30.62h-1.95v-20.4h1.96zm0-30.62h-1.95v-20.4h1.96zm0-30.62h-1.95v-20.4h1.96zm0-30.62h-1.95v-20.4h1.96zm0-30.62h-1.95v-20.4h1.96zM-980-454h-15.46l-.83.06-.75.18-.73.3-.67.42-.6.5-.5.6-.43.68-.3.73-.18.76-.06.84v10.17h-1.96v-10.24l.1-1.05.24-1.06.42-1 .58-.94.7-.83.84-.7.93-.6 1-.4 1.08-.26 1.06-.08H-980z" stroke="#5e5e5e" stroke-width=".05" fill="#5e5e5e"/><path d="M-761.5 200.97h-1.03v-1.94h1.03z" fill="#5e5e5e"/><path stroke="#5e5e5e" stroke-width=".05" fill="#5e5e5e"/><path d="M-964.74-455l-14.26 4.63v-9.26z" fill="#5e5e5e"/><path d="M-961.58-455l-18.4 5.98v-11.96zm-16.45 3.3l10.14-3.3-10.13-3.3z" stroke="#5e5e5e" stroke-width=".05" fill="#5e5e5e"/><g><use xlink:href="#aj" transform="matrix(1,0,0,1,-1095.648098148154,-142.66666666666666) translate(0 14.222222222222223)"/><use xlink:href="#ak" transform="matrix(1,0,0,1,-1095.648098148154,-142.66666666666666) translate(52.296296296296305 14.222222222222223)"/><use xlink:href="#al" transform="matrix(1,0,0,1,-1095.648098148154,-142.66666666666666) translate(98.61728395061729 14.222222222222223)"/></g><path d="M-760 226a6 6 0 0 1 6-6h227.08a6 6 0 0 1 6 6v8a6 6 0 0 1-6 6H-754a6 6 0 0 1-6-6z" stroke="#000" stroke-opacity="0" stroke-width="3" fill="#fff" fill-opacity="0"/><g><use xlink:href="#am" transform="matrix(1,0,0,1,-755,225) translate(87.65432098765434 7.111111111111107)"/><use xlink:href="#l" transform="matrix(1,0,0,1,-755,225) translate(115 17.777777777777768)"/></g><path d="M-416.8 446a6 6 0 0 1 6-6h227.1a6 6 0 0 1 6 6v8a6 6 0 0 1-6 6h-227.1a6 6 0 0 1-6-6z" stroke="#000" stroke-opacity="0" stroke-width="3" fill="#fff" fill-opacity="0"/><g><use xlink:href="#am" transform="matrix(1,0,0,1,-411.79166666666663,445) translate(87.65432098765434 7.111111111111107)"/><use xlink:href="#l" transform="matrix(1,0,0,1,-411.79166666666663,445) translate(115 17.777777777777768)"/></g><path d="M-740-954a6 6 0 0 1 6-6h908a6 6 0 0 1 6 6v148a6 6 0 0 1-6 6h-908a6 6 0 0 1-6-6z" stroke="#5e5e5e" stroke-width="3" fill="#ced4db"/><g><use xlink:href="#an" transform="matrix(1,0,0,1,-735,-955) translate(295.22222222222223 81.85)"/><use xlink:href="#ao" transform="matrix(1,0,0,1,-735,-955) translate(442.4222222222222 81.85)"/><use xlink:href="#ap" transform="matrix(1,0,0,1,-735,-955) translate(486.8666666666667 81.85)"/></g><defs><path fill="#fff" d="M205 0l-28-72H64L36 0H1l101-248h38L239 0h-34zm-38-99l-47-123c-12 45-31 82-46 123h93" id="aq"/><path fill="#fff" d="M24 0v-261h32V0H24" id="ar"/><path fill="#fff" d="M84 4C-5 8 30-112 23-190h32v120c0 31 7 50 39 49 72-2 45-101 50-169h31l1 190h-30c-1-10 1-25-2-33-11 22-28 36-60 37" id="as"/><path fill="#fff" d="M117-194c89-4 53 116 60 194h-32v-121c0-31-8-49-39-48C34-167 62-67 57 0H25l-1-190h30c1 10-1 24 2 32 11-22 29-35 61-36" id="at"/><path fill="#fff" d="M100-194c62-1 85 37 85 99 1 63-27 99-86 99S16-35 15-95c0-66 28-99 85-99zM99-20c44 1 53-31 53-75 0-43-8-75-51-75s-53 32-53 75 10 74 51 75" id="au"/><g id="a"><use transform="matrix(0.06172839506172839,0,0,0.06172839506172839,0,0)" xlink:href="#aq"/><use transform="matrix(0.06172839506172839,0,0,0.06172839506172839,14.814814814814813,0)" xlink:href="#ar"/><use transform="matrix(0.06172839506172839,0,0,0.06172839506172839,19.691358024691354,0)" xlink:href="#as"/><use transform="matrix(0.06172839506172839,0,0,0.06172839506172839,32.03703703703703,0)" xlink:href="#at"/><use transform="matrix(0.06172839506172839,0,0,0.06172839506172839,44.38271604938271,0)" xlink:href="#au"/></g><path fill="#fff" d="M185-189c-5-48-123-54-124 2 14 75 158 14 163 119 3 78-121 87-175 55-17-10-28-26-33-46l33-7c5 56 141 63 141-1 0-78-155-14-162-118-5-82 145-84 179-34 5 7 8 16 11 25" id="av"/><path fill="#fff" d="M24-231v-30h32v30H24zM24 0v-190h32V0H24" id="aw"/><path fill="#fff" d="M135-143c-3-34-86-38-87 0 15 53 115 12 119 90S17 21 10-45l28-5c4 36 97 45 98 0-10-56-113-15-118-90-4-57 82-63 122-42 12 7 21 19 24 35" id="ax"/><path fill="#fff" d="M59-47c-2 24 18 29 38 22v24C64 9 27 4 27-40v-127H5v-23h24l9-43h21v43h35v23H59v120" id="ay"/><path fill="#fff" d="M100-194c63 0 86 42 84 106H49c0 40 14 67 53 68 26 1 43-12 49-29l28 8c-11 28-37 45-77 45C44 4 14-33 15-96c1-61 26-98 85-98zm52 81c6-60-76-77-97-28-3 7-6 17-6 28h103" id="az"/><path fill="#fff" d="M210-169c-67 3-38 105-44 169h-31v-121c0-29-5-50-35-48C34-165 62-65 56 0H25l-1-190h30c1 10-1 24 2 32 10-44 99-50 107 0 11-21 27-35 58-36 85-2 47 119 55 194h-31v-121c0-29-5-49-35-48" id="aA"/><path fill="#fff" d="M141-36C126-15 110 5 73 4 37 3 15-17 15-53c-1-64 63-63 125-63 3-35-9-54-41-54-24 1-41 7-42 31l-33-3c5-37 33-52 76-52 45 0 72 20 72 64v82c-1 20 7 32 28 27v20c-31 9-61-2-59-35zM48-53c0 20 12 33 32 33 41-3 63-29 60-74-43 2-92-5-92 41" id="aB"/><g id="b"><use transform="matrix(0.06172839506172839,0,0,0.06172839506172839,0,0)" xlink:href="#av"/><use transform="matrix(0.06172839506172839,0,0,0.06172839506172839,14.814814814814813,0)" xlink:href="#aw"/><use transform="matrix(0.06172839506172839,0,0,0.06172839506172839,19.691358024691354,0)" xlink:href="#ax"/><use transform="matrix(0.06172839506172839,0,0,0.06172839506172839,30.802469135802465,0)" xlink:href="#ay"/><use transform="matrix(0.06172839506172839,0,0,0.06172839506172839,36.9753086419753,0)" xlink:href="#az"/><use transform="matrix(0.06172839506172839,0,0,0.06172839506172839,49.32098765432098,0)" xlink:href="#aA"/><use transform="matrix(0.06172839506172839,0,0,0.06172839506172839,67.77777777777777,0)" xlink:href="#aB"/></g><path fill="#fff" d="M212-179c-10-28-35-45-73-45-59 0-87 40-87 99 0 60 29 101 89 101 43 0 62-24 78-52l27 14C228-24 195 4 139 4 59 4 22-46 18-125c-6-104 99-153 187-111 19 9 31 26 39 46" id="aC"/><path fill="#fff" d="M96-169c-40 0-48 33-48 73s9 75 48 75c24 0 41-14 43-38l32 2c-6 37-31 61-74 61-59 0-76-41-82-99-10-93 101-131 147-64 4 7 5 14 7 22l-32 3c-4-21-16-35-41-35" id="aD"/><g id="c"><use transform="matrix(0.06172839506172839,0,0,0.06172839506172839,0,0)" xlink:href="#aC"/><use transform="matrix(0.06172839506172839,0,0,0.06172839506172839,15.987654320987653,0)" xlink:href="#au"/><use transform="matrix(0.06172839506172839,0,0,0.06172839506172839,28.333333333333332,0)" xlink:href="#at"/><use transform="matrix(0.06172839506172839,0,0,0.06172839506172839,40.67901234567901,0)" xlink:href="#az"/><use transform="matrix(0.06172839506172839,0,0,0.06172839506172839,53.02469135802469,0)" xlink:href="#aD"/><use transform="matrix(0.06172839506172839,0,0,0.06172839506172839,64.1358024691358,0)" xlink:href="#ay"/><use transform="matrix(0.06172839506172839,0,0,0.06172839506172839,70.30864197530863,0)" xlink:href="#aB"/></g><path fill="#fff" d="M33 0v-248h34V0H33" id="aE"/><path fill="#fff" d="M63-220v92h138v28H63V0H30v-248h175v28H63" id="aF"/><path fill="#fff" d="M30-248c87 1 191-15 191 75 0 78-77 80-158 76V0H30v-248zm33 125c57 0 124 11 124-50 0-59-68-47-124-48v98" id="aG"/><path fill="#fff" d="M30 0v-248h187v28H63v79h144v27H63v87h162V0H30" id="aH"/><g id="d"><use transform="matrix(0.06172839506172839,0,0,0.06172839506172839,0,0)" xlink:href="#aE"/><use transform="matrix(0.06172839506172839,0,0,0.06172839506172839,6.172839506172839,0)" xlink:href="#aF"/><use transform="matrix(0.06172839506172839,0,0,0.06172839506172839,19.691358024691358,0)" xlink:href="#aG"/><use transform="matrix(0.06172839506172839,0,0,0.06172839506172839,34.50617283950617,0)" xlink:href="#aH"/></g><path fill="#333" d="M24 0v-248h195v40H76v63h132v40H76v65h150V0H24" id="aI"/><path fill="#333" d="M135-194c87-1 58 113 63 194h-50c-7-57 23-157-34-157-59 0-34 97-39 157H25l-1-190h47c2 12-1 28 3 38 12-26 28-41 61-42" id="aJ"/><path fill="#333" d="M128 0H69L1-190h53L99-40l48-150h52" id="aK"/><path fill="#333" d="M25-224v-37h50v37H25zM25 0v-190h50V0H25" id="aL"/><path fill="#333" d="M133-34C117-15 103 5 69 4 32 3 11-16 11-54c-1-60 55-63 116-61 1-26-3-47-28-47-18 1-26 9-28 27l-52-2c7-38 36-58 82-57s74 22 75 68l1 82c-1 14 12 18 25 15v27c-30 8-71 5-69-32zm-48 3c29 0 43-24 42-57-32 0-66-3-65 30 0 17 8 27 23 27" id="aM"/><g id="e"><use transform="matrix(0.04938271604938272,0,0,0.04938271604938272,0,0)" xlink:href="#aI"/><use transform="matrix(0.04938271604938272,0,0,0.04938271604938272,11.851851851851853,0)" xlink:href="#aJ"/><use transform="matrix(0.04938271604938272,0,0,0.04938271604938272,22.666666666666668,0)" xlink:href="#aK"/><use transform="matrix(0.04938271604938272,0,0,0.04938271604938272,32.543209876543216,0)" xlink:href="#aL"/><use transform="matrix(0.04938271604938272,0,0,0.04938271604938272,37.48148148148149,0)" xlink:href="#aM"/></g><path fill="#333" d="M110-194c64 0 96 36 96 99 0 64-35 99-97 99-61 0-95-36-95-99 0-62 34-99 96-99zm-1 164c35 0 45-28 45-65 0-40-10-65-43-65-34 0-45 26-45 65 0 36 10 65 43 65" id="aN"/><path fill="#333" d="M115-3C79 11 28 4 28-45v-112H4v-33h27l15-45h31v45h36v33H77v99c-1 23 16 31 38 25v30" id="aO"/><path fill="#333" d="M121-226c-27-7-43 5-38 36h38v33H83V0H34v-157H6v-33h28c-9-59 32-81 87-68v32" id="aP"/><path fill="#333" d="M190-63c-7 42-38 67-86 67-59 0-84-38-90-98-12-110 154-137 174-36l-49 2c-2-19-15-32-35-32-30 0-35 28-38 64-6 74 65 87 74 30" id="aQ"/><path fill="#333" d="M190-63c-7 42-38 67-86 67-59 0-84-38-90-98-12-110 154-137 174-36l-49 2c-2-19-15-32-35-32-30 0-35 28-38 64-6 74 65 87 74 30zm-84 77c20 1 33 9 33 27 0 32-36 36-71 33V53c15 1 39 4 39-11 0-13-16-12-31-12L87 0h25" id="aR"/><path fill="#333" d="M110-194c64 0 96 36 96 99 0 64-35 99-97 99-61 0-95-36-95-99 0-62 34-99 96-99zm-1 164c35 0 45-28 45-65 0-40-10-65-43-65-34 0-45 26-45 65 0 36 10 65 43 65zm70-229c-2 27-9 52-40 51-27-1-66-46-73 0H42c0-29 9-51 39-51 28 0 66 44 74 0h24" id="aS"/><path fill="#333" d="M185-48c-13 30-37 53-82 52C43 2 14-33 14-96s30-98 90-98c62 0 83 45 84 108H66c0 31 8 55 39 56 18 0 30-7 34-22zm-45-69c5-46-57-63-70-21-2 6-4 13-4 21h74" id="aT"/><path fill="#333" d="M137-138c1-29-70-34-71-4 15 46 118 7 119 86 1 83-164 76-172 9l43-7c4 19 20 25 44 25 33 8 57-30 24-41C81-84 22-81 20-136c-2-80 154-74 161-7" id="aU"/><g id="f"><use transform="matrix(0.04938271604938272,0,0,0.04938271604938272,0,0)" xlink:href="#aJ"/><use transform="matrix(0.04938271604938272,0,0,0.04938271604938272,10.814814814814815,0)" xlink:href="#aN"/><use transform="matrix(0.04938271604938272,0,0,0.04938271604938272,21.62962962962963,0)" xlink:href="#aO"/><use transform="matrix(0.04938271604938272,0,0,0.04938271604938272,27.506172839506174,0)" xlink:href="#aL"/><use transform="matrix(0.04938271604938272,0,0,0.04938271604938272,32.44444444444444,0)" xlink:href="#aP"/><use transform="matrix(0.04938271604938272,0,0,0.04938271604938272,38.32098765432099,0)" xlink:href="#aL"/><use transform="matrix(0.04938271604938272,0,0,0.04938271604938272,43.25925925925926,0)" xlink:href="#aQ"/><use transform="matrix(0.04938271604938272,0,0,0.04938271604938272,53.135802469135804,0)" xlink:href="#aM"/><use transform="matrix(0.04938271604938272,0,0,0.04938271604938272,63.01234567901235,0)" xlink:href="#aR"/><use transform="matrix(0.04938271604938272,0,0,0.04938271604938272,72.88888888888889,0)" xlink:href="#aS"/><use transform="matrix(0.04938271604938272,0,0,0.04938271604938272,83.7037037037037,0)" xlink:href="#aT"/><use transform="matrix(0.04938271604938272,0,0,0.04938271604938272,93.58024691358024,0)" xlink:href="#aU"/></g><path fill="#333" d="M85 4C-2 5 27-109 22-190h50c7 57-23 150 33 157 60-5 35-97 40-157h50l1 190h-47c-2-12 1-28-3-38-12 25-28 42-61 42" id="aV"/><path fill="#333" d="M88-194c31-1 46 15 58 34l-1-101h50l1 261h-48c-2-10 0-23-3-31C134-8 116 4 84 4 32 4 16-41 15-95c0-56 19-97 73-99zm17 164c33 0 40-30 41-66 1-37-9-64-41-64s-38 30-39 65c0 43 13 65 39 65" id="aW"/><g id="g"><use transform="matrix(0.04938271604938272,0,0,0.04938271604938272,0,0)" xlink:href="#aV"/><use transform="matrix(0.04938271604938272,0,0,0.04938271604938272,10.814814814814815,0)" xlink:href="#aU"/><use transform="matrix(0.04938271604938272,0,0,0.04938271604938272,20.69135802469136,0)" xlink:href="#aM"/><use transform="matrix(0.04938271604938272,0,0,0.04938271604938272,30.567901234567906,0)" xlink:href="#aJ"/><use transform="matrix(0.04938271604938272,0,0,0.04938271604938272,41.38271604938272,0)" xlink:href="#aW"/><use transform="matrix(0.04938271604938272,0,0,0.04938271604938272,52.19753086419754,0)" xlink:href="#aN"/></g><path fill="#fff" d="M240 0l2-218c-23 76-54 145-80 218h-23L58-218 59 0H30v-248h44l77 211c21-75 51-140 76-211h43V0h-30" id="aX"/><path fill="#fff" d="M114-163C36-179 61-72 57 0H25l-1-190h30c1 12-1 29 2 39 6-27 23-49 58-41v29" id="aY"/><path fill="#fff" d="M108 0H70L1-190h34L89-25l56-165h34" id="aZ"/><path fill="#fff" d="M96-169c-40 0-48 33-48 73s9 75 48 75c24 0 41-14 43-38l32 2c-6 37-31 61-74 61-59 0-76-41-82-99-10-93 101-131 147-64 4 7 5 14 7 22l-32 3c-4-21-16-35-41-35zm3 187c19-1 33 8 33 26 0 31-30 33-64 32V58c18 2 39 4 41-13 1-15-18-13-34-13L87 0h19" id="ba"/><g id="h"><use transform="matrix(0.06172839506172839,0,0,0.06172839506172839,0,0)" xlink:href="#aX"/><use transform="matrix(0.06172839506172839,0,0,0.06172839506172839,18.456790123456788,0)" xlink:href="#aw"/><use transform="matrix(0.06172839506172839,0,0,0.06172839506172839,23.33333333333333,0)" xlink:href="#aD"/><use transform="matrix(0.06172839506172839,0,0,0.06172839506172839,34.44444444444444,0)" xlink:href="#aY"/><use transform="matrix(0.06172839506172839,0,0,0.06172839506172839,41.79012345679012,0)" xlink:href="#au"/><use transform="matrix(0.06172839506172839,0,0,0.06172839506172839,54.1358024691358,0)" xlink:href="#ax"/><use transform="matrix(0.06172839506172839,0,0,0.06172839506172839,65.24691358024691,0)" xlink:href="#az"/><use transform="matrix(0.06172839506172839,0,0,0.06172839506172839,77.5925925925926,0)" xlink:href="#aY"/><use transform="matrix(0.06172839506172839,0,0,0.06172839506172839,84.93827160493828,0)" xlink:href="#aZ"/><use transform="matrix(0.06172839506172839,0,0,0.06172839506172839,96.0493827160494,0)" xlink:href="#aw"/><use transform="matrix(0.06172839506172839,0,0,0.06172839506172839,100.92592592592594,0)" xlink:href="#ba"/><use transform="matrix(0.06172839506172839,0,0,0.06172839506172839,112.03703703703705,0)" xlink:href="#au"/></g><path fill="#fff" d="M85-194c31 0 48 13 60 33l-1-100h32l1 261h-30c-2-10 0-23-3-31C134-8 116 4 85 4 32 4 16-35 15-94c0-66 23-100 70-100zm9 24c-40 0-46 34-46 75 0 40 6 74 45 74 42 0 51-32 51-76 0-42-9-74-50-73" id="bb"/><g id="i"><use transform="matrix(0.06172839506172839,0,0,0.06172839506172839,0,0)" xlink:href="#bb"/><use transform="matrix(0.06172839506172839,0,0,0.06172839506172839,12.345679012345679,0)" xlink:href="#az"/></g><path fill="#fff" d="M190 0L58-211 59 0H30v-248h39L202-35l-2-213h31V0h-41" id="bc"/><path fill="#fff" d="M101-234c-31-9-42 10-38 44h38v23H63V0H32v-167H5v-23h27c-7-52 17-82 69-68v24" id="bd"/><path fill="#fff" d="M100-194c62-1 85 37 85 99 1 63-27 99-86 99S16-35 15-95c0-66 28-99 85-99zM99-20c44 1 53-31 53-75 0-43-8-75-51-75s-53 32-53 75 10 74 51 75zm66-238c-3 23-9 48-36 47-26-1-65-44-74 0H39c4-23 8-48 36-47s64 44 74 0h16" id="be"/><g id="j"><use transform="matrix(0.06172839506172839,0,0,0.06172839506172839,0,0)" xlink:href="#bc"/><use transform="matrix(0.06172839506172839,0,0,0.06172839506172839,15.987654320987653,0)" xlink:href="#au"/><use transform="matrix(0.06172839506172839,0,0,0.06172839506172839,28.333333333333332,0)" xlink:href="#ay"/><use transform="matrix(0.06172839506172839,0,0,0.06172839506172839,34.50617283950617,0)" xlink:href="#aw"/><use transform="matrix(0.06172839506172839,0,0,0.06172839506172839,39.382716049382715,0)" xlink:href="#bd"/><use transform="matrix(0.06172839506172839,0,0,0.06172839506172839,45.55555555555556,0)" xlink:href="#aw"/><use transform="matrix(0.06172839506172839,0,0,0.06172839506172839,50.4320987654321,0)" xlink:href="#aD"/><use transform="matrix(0.06172839506172839,0,0,0.06172839506172839,61.543209876543216,0)" xlink:href="#aB"/><use transform="matrix(0.06172839506172839,0,0,0.06172839506172839,73.8888888888889,0)" xlink:href="#ba"/><use transform="matrix(0.06172839506172839,0,0,0.06172839506172839,85.00000000000001,0)" xlink:href="#be"/><use transform="matrix(0.06172839506172839,0,0,0.06172839506172839,97.3456790123457,0)" xlink:href="#az"/><use transform="matrix(0.06172839506172839,0,0,0.06172839506172839,109.69135802469138,0)" xlink:href="#ax"/></g><path fill="#fff" d="M26 75v-336h71v23H56V52h41v23H26" id="bf"/><path fill="#fff" d="M3 75V52h41v-290H3v-23h71V75H3" id="bg"/><g id="k"><use transform="matrix(0.024691358024691343,0,0,0.024691358024691343,0,0)" xlink:href="#bf"/><use transform="matrix(0.024691358024691343,0,0,0.024691358024691343,2.4691358024691343,0)" xlink:href="#aG"/><use transform="matrix(0.024691358024691343,0,0,0.024691358024691343,8.395061728395056,0)" xlink:href="#az"/><use transform="matrix(0.024691358024691343,0,0,0.024691358024691343,13.333333333333325,0)" xlink:href="#aY"/><use transform="matrix(0.024691358024691343,0,0,0.024691358024691343,16.271604938271594,0)" xlink:href="#ax"/><use transform="matrix(0.024691358024691343,0,0,0.024691358024691343,20.716049382716037,0)" xlink:href="#au"/><use transform="matrix(0.024691358024691343,0,0,0.024691358024691343,25.654320987654305,0)" xlink:href="#at"/><use transform="matrix(0.024691358024691343,0,0,0.024691358024691343,30.592592592592574,0)" xlink:href="#bg"/></g><path fill="#fff" d="M206 0h-36l-40-164L89 0H53L-1-190h32L70-26l43-164h34l41 164 42-164h31" id="bh"/><g id="m"><use transform="matrix(0.024691358024691343,0,0,0.024691358024691343,0,0)" xlink:href="#bf"/><use transform="matrix(0.024691358024691343,0,0,0.024691358024691343,2.4691358024691343,0)" xlink:href="#av"/><use transform="matrix(0.024691358024691343,0,0,0.024691358024691343,8.395061728395056,0)" xlink:href="#au"/><use transform="matrix(0.024691358024691343,0,0,0.024691358024691343,13.333333333333325,0)" xlink:href="#bd"/><use transform="matrix(0.024691358024691343,0,0,0.024691358024691343,15.80246913580246,0)" xlink:href="#ay"/><use transform="matrix(0.024691358024691343,0,0,0.024691358024691343,18.271604938271594,0)" xlink:href="#bh"/><use transform="matrix(0.024691358024691343,0,0,0.024691358024691343,24.66666666666665,0)" xlink:href="#aB"/><use transform="matrix(0.024691358024691343,0,0,0.024691358024691343,29.60493827160492,0)" xlink:href="#aY"/><use transform="matrix(0.024691358024691343,0,0,0.024691358024691343,32.54320987654319,0)" xlink:href="#az"/></g><path fill="#fff" d="M179-190L93 31C79 59 56 82 12 73V49c39 6 53-20 64-50L1-190h34L92-34l54-156h33" id="bi"/><g id="n"><use transform="matrix(0.024691358024691343,0,0,0.024691358024691343,0,0)" xlink:href="#av"/><use transform="matrix(0.024691358024691343,0,0,0.024691358024691343,5.925925925925922,0)" xlink:href="#bi"/><use transform="matrix(0.024691358024691343,0,0,0.024691358024691343,10.370370370370363,0)" xlink:href="#ax"/><use transform="matrix(0.024691358024691343,0,0,0.024691358024691343,14.814814814814806,0)" xlink:href="#ay"/><use transform="matrix(0.024691358024691343,0,0,0.024691358024691343,17.283950617283942,0)" xlink:href="#az"/><use transform="matrix(0.024691358024691343,0,0,0.024691358024691343,22.22222222222221,0)" xlink:href="#aA"/><use transform="matrix(0.024691358024691343,0,0,0.024691358024691343,29.60493827160492,0)" xlink:href="#bg"/></g><g id="o"><use transform="matrix(0.06172839506172839,0,0,0.06172839506172839,0,0)" xlink:href="#aq"/><use transform="matrix(0.06172839506172839,0,0,0.06172839506172839,14.814814814814813,0)" xlink:href="#ax"/><use transform="matrix(0.06172839506172839,0,0,0.06172839506172839,25.925925925925924,0)" xlink:href="#ax"/><use transform="matrix(0.06172839506172839,0,0,0.06172839506172839,37.03703703703704,0)" xlink:href="#aw"/><use transform="matrix(0.06172839506172839,0,0,0.06172839506172839,41.91358024691358,0)" xlink:href="#ax"/><use transform="matrix(0.06172839506172839,0,0,0.06172839506172839,53.0246913580247,0)" xlink:href="#ay"/><use transform="matrix(0.06172839506172839,0,0,0.06172839506172839,59.19753086419754,0)" xlink:href="#az"/><use transform="matrix(0.06172839506172839,0,0,0.06172839506172839,71.54320987654322,0)" xlink:href="#at"/><use transform="matrix(0.06172839506172839,0,0,0.06172839506172839,83.8888888888889,0)" xlink:href="#ay"/><use transform="matrix(0.06172839506172839,0,0,0.06172839506172839,90.06172839506173,0)" xlink:href="#az"/></g><g id="p"><use transform="matrix(0.06172839506172839,0,0,0.06172839506172839,0,0)" xlink:href="#ax"/><use transform="matrix(0.06172839506172839,0,0,0.06172839506172839,11.11111111111111,0)" xlink:href="#au"/><use transform="matrix(0.06172839506172839,0,0,0.06172839506172839,23.45679012345679,0)" xlink:href="#aD"/><use transform="matrix(0.06172839506172839,0,0,0.06172839506172839,34.5679012345679,0)" xlink:href="#aw"/><use transform="matrix(0.06172839506172839,0,0,0.06172839506172839,39.44444444444444,0)" xlink:href="#aB"/><use transform="matrix(0.06172839506172839,0,0,0.06172839506172839,51.79012345679012,0)" xlink:href="#ar"/></g><g id="q"><use transform="matrix(0.024691358024691343,0,0,0.024691358024691343,0,0)" xlink:href="#bf"/><use transform="matrix(0.024691358024691343,0,0,0.024691358024691343,2.4691358024691343,0)" xlink:href="#aG"/><use transform="matrix(0.024691358024691343,0,0,0.024691358024691343,8.395061728395056,0)" xlink:href="#az"/><use transform="matrix(0.024691358024691343,0,0,0.024691358024691343,13.333333333333325,0)" xlink:href="#aY"/><use transform="matrix(0.024691358024691343,0,0,0.024691358024691343,16.271604938271594,0)" xlink:href="#ax"/><use transform="matrix(0.024691358024691343,0,0,0.024691358024691343,20.716049382716037,0)" xlink:href="#au"/><use transform="matrix(0.024691358024691343,0,0,0.024691358024691343,25.654320987654305,0)" xlink:href="#at"/><use transform="matrix(0.024691358024691343,0,0,0.024691358024691343,30.592592592592574,0)" xlink:href="#bg"/></g><path fill="#282c33" d="M199 0l-22-63H83L61 0H9l90-248h61L250 0h-51zm-33-102l-36-108c-10 38-24 72-36 108h72" id="bj"/><path fill="#282c33" d="M85 4C-2 5 27-109 22-190h50c7 57-23 150 33 157 60-5 35-97 40-157h50l1 190h-47c-2-12 1-28-3-38-12 25-28 42-61 42" id="bk"/><path fill="#282c33" d="M115-3C79 11 28 4 28-45v-112H4v-33h27l15-45h31v45h36v33H77v99c-1 23 16 31 38 25v30" id="bl"/><path fill="#282c33" d="M185-48c-13 30-37 53-82 52C43 2 14-33 14-96s30-98 90-98c62 0 83 45 84 108H66c0 31 8 55 39 56 18 0 30-7 34-22zm-45-69c5-46-57-63-70-21-2 6-4 13-4 21h74" id="bm"/><path fill="#282c33" d="M135-194c87-1 58 113 63 194h-50c-7-57 23-157-34-157-59 0-34 97-39 157H25l-1-190h47c2 12-1 28 3 38 12-26 28-41 61-42" id="bn"/><path fill="#282c33" d="M25-224v-37h50v37H25zM25 0v-190h50V0H25" id="bo"/><path fill="#282c33" d="M190-63c-7 42-38 67-86 67-59 0-84-38-90-98-12-110 154-137 174-36l-49 2c-2-19-15-32-35-32-30 0-35 28-38 64-6 74 65 87 74 30" id="bp"/><path fill="#282c33" d="M133-34C117-15 103 5 69 4 32 3 11-16 11-54c-1-60 55-63 116-61 1-26-3-47-28-47-18 1-26 9-28 27l-52-2c7-38 36-58 82-57s74 22 75 68l1 82c-1 14 12 18 25 15v27c-30 8-71 5-69-32zm-48 3c29 0 43-24 42-57-32 0-66-3-65 30 0 17 8 27 23 27" id="bq"/><path fill="#282c33" d="M76-54c-1 42 2 86-19 110H24C36 42 46 24 48 0H25v-54h51" id="br"/><g id="r"><use transform="matrix(0.04938271604938272,0,0,0.04938271604938272,0,0)" xlink:href="#bj"/><use transform="matrix(0.04938271604938272,0,0,0.04938271604938272,12.790123456790125,0)" xlink:href="#bk"/><use transform="matrix(0.04938271604938272,0,0,0.04938271604938272,23.60493827160494,0)" xlink:href="#bl"/><use transform="matrix(0.04938271604938272,0,0,0.04938271604938272,29.481481481481485,0)" xlink:href="#bm"/><use transform="matrix(0.04938271604938272,0,0,0.04938271604938272,39.358024691358025,0)" xlink:href="#bn"/><use transform="matrix(0.04938271604938272,0,0,0.04938271604938272,50.17283950617284,0)" xlink:href="#bl"/><use transform="matrix(0.04938271604938272,0,0,0.04938271604938272,56.04938271604939,0)" xlink:href="#bo"/><use transform="matrix(0.04938271604938272,0,0,0.04938271604938272,60.98765432098766,0)" xlink:href="#bp"/><use transform="matrix(0.04938271604938272,0,0,0.04938271604938272,70.8641975308642,0)" xlink:href="#bq"/><use transform="matrix(0.04938271604938272,0,0,0.04938271604938272,80.74074074074075,0)" xlink:href="#br"/></g><path fill="#282c33" d="M240-174c0 40-23 61-54 70L253 0h-59l-57-94H76V0H24v-248c93 4 217-23 216 74zM76-134c48-2 112 12 112-38 0-48-66-32-112-35v73" id="bs"/><path fill="#282c33" d="M135-194c52 0 70 43 70 98 0 56-19 99-73 100-30 1-46-15-58-35L72 0H24l1-261h50v104c11-23 29-37 60-37zM114-30c31 0 40-27 40-66 0-37-7-63-39-63s-41 28-41 65c0 36 8 64 40 64" id="bt"/><g id="s"><use transform="matrix(0.04938271604938272,0,0,0.04938271604938272,0,0)" xlink:href="#bs"/><use transform="matrix(0.04938271604938272,0,0,0.04938271604938272,12.790123456790125,0)" xlink:href="#bm"/><use transform="matrix(0.04938271604938272,0,0,0.04938271604938272,22.66666666666667,0)" xlink:href="#bp"/><use transform="matrix(0.04938271604938272,0,0,0.04938271604938272,32.543209876543216,0)" xlink:href="#bm"/><use transform="matrix(0.04938271604938272,0,0,0.04938271604938272,42.41975308641976,0)" xlink:href="#bt"/><use transform="matrix(0.04938271604938272,0,0,0.04938271604938272,53.23456790123457,0)" xlink:href="#bm"/></g><path fill="#282c33" d="M110-194c64 0 96 36 96 99 0 64-35 99-97 99-61 0-95-36-95-99 0-62 34-99 96-99zm-1 164c35 0 45-28 45-65 0-40-10-65-43-65-34 0-45 26-45 65 0 36 10 65 43 65" id="bu"/><path fill="#282c33" d="M121-226c-27-7-43 5-38 36h38v33H83V0H34v-157H6v-33h28c-9-59 32-81 87-68v32" id="bv"/><path fill="#282c33" d="M190-63c-7 42-38 67-86 67-59 0-84-38-90-98-12-110 154-137 174-36l-49 2c-2-19-15-32-35-32-30 0-35 28-38 64-6 74 65 87 74 30zm-84 77c20 1 33 9 33 27 0 32-36 36-71 33V53c15 1 39 4 39-11 0-13-16-12-31-12L87 0h25" id="bw"/><path fill="#282c33" d="M110-194c64 0 96 36 96 99 0 64-35 99-97 99-61 0-95-36-95-99 0-62 34-99 96-99zm-1 164c35 0 45-28 45-65 0-40-10-65-43-65-34 0-45 26-45 65 0 36 10 65 43 65zm70-229c-2 27-9 52-40 51-27-1-66-46-73 0H42c0-29 9-51 39-51 28 0 66 44 74 0h24" id="bx"/><path fill="#282c33" d="M137-138c1-29-70-34-71-4 15 46 118 7 119 86 1 83-164 76-172 9l43-7c4 19 20 25 44 25 33 8 57-30 24-41C81-84 22-81 20-136c-2-80 154-74 161-7" id="by"/><g id="t"><use transform="matrix(0.04938271604938272,0,0,0.04938271604938272,0,0)" xlink:href="#bn"/><use transform="matrix(0.04938271604938272,0,0,0.04938271604938272,10.814814814814815,0)" xlink:href="#bu"/><use transform="matrix(0.04938271604938272,0,0,0.04938271604938272,21.62962962962963,0)" xlink:href="#bl"/><use transform="matrix(0.04938271604938272,0,0,0.04938271604938272,27.506172839506174,0)" xlink:href="#bo"/><use transform="matrix(0.04938271604938272,0,0,0.04938271604938272,32.44444444444444,0)" xlink:href="#bv"/><use transform="matrix(0.04938271604938272,0,0,0.04938271604938272,38.32098765432099,0)" xlink:href="#bo"/><use transform="matrix(0.04938271604938272,0,0,0.04938271604938272,43.25925925925926,0)" xlink:href="#bp"/><use transform="matrix(0.04938271604938272,0,0,0.04938271604938272,53.135802469135804,0)" xlink:href="#bq"/><use transform="matrix(0.04938271604938272,0,0,0.04938271604938272,63.01234567901235,0)" xlink:href="#bw"/><use transform="matrix(0.04938271604938272,0,0,0.04938271604938272,72.88888888888889,0)" xlink:href="#bx"/><use transform="matrix(0.04938271604938272,0,0,0.04938271604938272,83.7037037037037,0)" xlink:href="#bm"/><use transform="matrix(0.04938271604938272,0,0,0.04938271604938272,93.58024691358024,0)" xlink:href="#by"/><use transform="matrix(0.04938271604938272,0,0,0.04938271604938272,103.45679012345677,0)" xlink:href="#br"/></g><path fill="#282c33" d="M147 0H94L2-248h55l64 206c17-72 42-137 63-206h54" id="bz"/><path fill="#282c33" d="M135-150c-39-12-60 13-60 57V0H25l-1-190h47c2 13-1 29 3 40 6-28 27-53 61-41v41" id="bA"/><g id="u"><use transform="matrix(0.04938271604938272,0,0,0.04938271604938272,0,0)" xlink:href="#bz"/><use transform="matrix(0.04938271604938272,0,0,0.04938271604938272,10.864197530864198,0)" xlink:href="#bm"/><use transform="matrix(0.04938271604938272,0,0,0.04938271604938272,20.74074074074074,0)" xlink:href="#bA"/></g><g id="v"><use transform="matrix(0.04938271604938272,0,0,0.04938271604938272,0,0)" xlink:href="#by"/><use transform="matrix(0.04938271604938272,0,0,0.04938271604938272,9.876543209876544,0)" xlink:href="#bl"/><use transform="matrix(0.04938271604938272,0,0,0.04938271604938272,15.753086419753087,0)" xlink:href="#bq"/><use transform="matrix(0.04938271604938272,0,0,0.04938271604938272,25.629629629629633,0)" xlink:href="#bl"/><use transform="matrix(0.04938271604938272,0,0,0.04938271604938272,31.506172839506174,0)" xlink:href="#bk"/><use transform="matrix(0.04938271604938272,0,0,0.04938271604938272,42.320987654320994,0)" xlink:href="#by"/></g><path fill="#282c33" d="M88-194c31-1 46 15 58 34l-1-101h50l1 261h-48c-2-10 0-23-3-31C134-8 116 4 84 4 32 4 16-41 15-95c0-56 19-97 73-99zm17 164c33 0 40-30 41-66 1-37-9-64-41-64s-38 30-39 65c0 43 13 65 39 65" id="bB"/><g id="w"><use transform="matrix(0.04938271604938272,0,0,0.04938271604938272,0,0)" xlink:href="#bB"/><use transform="matrix(0.04938271604938272,0,0,0.04938271604938272,10.814814814814815,0)" xlink:href="#bq"/></g><path fill="#282c33" d="M25 0v-261h50V0H25" id="bC"/><g id="x"><use transform="matrix(0.04938271604938272,0,0,0.04938271604938272,0,0)" xlink:href="#bt"/><use transform="matrix(0.04938271604938272,0,0,0.04938271604938272,10.814814814814815,0)" xlink:href="#bu"/><use transform="matrix(0.04938271604938272,0,0,0.04938271604938272,21.62962962962963,0)" xlink:href="#bC"/><use transform="matrix(0.04938271604938272,0,0,0.04938271604938272,26.567901234567902,0)" xlink:href="#by"/><use transform="matrix(0.04938271604938272,0,0,0.04938271604938272,36.44444444444444,0)" xlink:href="#bq"/><use transform="matrix(0.04938271604938272,0,0,0.04938271604938272,46.32098765432099,0)" xlink:href="#br"/></g><path fill="#282c33" d="M114-157C55-157 80-60 75 0H25v-261h50l-1 109c12-26 28-41 61-42 86-1 58 113 63 194h-50c-7-57 23-157-34-157" id="bD"/><path fill="#282c33" d="M110-194c64 0 96 36 96 99 0 64-35 99-97 99-61 0-95-36-95-99 0-62 34-99 96-99zm-1 164c35 0 45-28 45-65 0-40-10-65-43-65-34 0-45 26-45 65 0 36 10 65 43 65zM81-208v-5l45-51h45v8l-60 48H81" id="bE"/><g id="y"><use transform="matrix(0.04938271604938272,0,0,0.04938271604938272,0,0)" xlink:href="#bD"/><use transform="matrix(0.04938271604938272,0,0,0.04938271604938272,10.814814814814815,0)" xlink:href="#bo"/><use transform="matrix(0.04938271604938272,0,0,0.04938271604938272,15.753086419753087,0)" xlink:href="#by"/><use transform="matrix(0.04938271604938272,0,0,0.04938271604938272,25.629629629629633,0)" xlink:href="#bl"/><use transform="matrix(0.04938271604938272,0,0,0.04938271604938272,31.506172839506174,0)" xlink:href="#bE"/><use transform="matrix(0.04938271604938272,0,0,0.04938271604938272,42.320987654320994,0)" xlink:href="#bA"/><use transform="matrix(0.04938271604938272,0,0,0.04938271604938272,49.23456790123458,0)" xlink:href="#bo"/><use transform="matrix(0.04938271604938272,0,0,0.04938271604938272,54.17283950617284,0)" xlink:href="#bp"/><use transform="matrix(0.04938271604938272,0,0,0.04938271604938272,64.0493827160494,0)" xlink:href="#bu"/></g><use transform="matrix(0.04938271604938272,0,0,0.04938271604938272,0,0)" xlink:href="#bm" id="z"/><g id="A"><use transform="matrix(0.04938271604938272,0,0,0.04938271604938272,0,0)" xlink:href="#bB"/><use transform="matrix(0.04938271604938272,0,0,0.04938271604938272,10.814814814814815,0)" xlink:href="#bm"/></g><path fill="#282c33" d="M135-194c53 0 70 44 70 98 0 56-19 98-73 100-31 1-45-17-59-34 3 33 2 69 2 105H25l-1-265h48c2 10 0 23 3 31 11-24 29-35 60-35zM114-30c33 0 39-31 40-66 0-38-9-64-40-64-56 0-55 130 0 130" id="bF"/><path fill="#282c33" d="M195-6C206 82 75 100 31 46c-4-6-6-13-8-21l49-6c3 16 16 24 34 25 40 0 42-37 40-79-11 22-30 35-61 35-53 0-70-43-70-97 0-56 18-96 73-97 30 0 46 14 59 34l2-30h47zm-90-29c32 0 41-27 41-63 0-35-9-62-40-62-32 0-39 29-40 63 0 36 9 62 39 62" id="bG"/><path fill="#282c33" d="M220-157c-53 9-28 100-34 157h-49v-107c1-27-5-49-29-50C55-147 81-57 75 0H25l-1-190h47c2 12-1 28 3 38 10-53 101-56 108 0 13-22 24-43 59-42 82 1 51 116 57 194h-49v-107c-1-25-5-48-29-50" id="bH"/><g id="B"><use transform="matrix(0.04938271604938272,0,0,0.04938271604938272,0,0)" xlink:href="#bF"/><use transform="matrix(0.04938271604938272,0,0,0.04938271604938272,10.814814814814815,0)" xlink:href="#bq"/><use transform="matrix(0.04938271604938272,0,0,0.04938271604938272,20.69135802469136,0)" xlink:href="#bG"/><use transform="matrix(0.04938271604938272,0,0,0.04938271604938272,31.506172839506174,0)" xlink:href="#bq"/><use transform="matrix(0.04938271604938272,0,0,0.04938271604938272,41.38271604938272,0)" xlink:href="#bH"/><use transform="matrix(0.04938271604938272,0,0,0.04938271604938272,57.18518518518519,0)" xlink:href="#bm"/><use transform="matrix(0.04938271604938272,0,0,0.04938271604938272,67.06172839506173,0)" xlink:href="#bn"/><use transform="matrix(0.04938271604938272,0,0,0.04938271604938272,77.87654320987654,0)" xlink:href="#bl"/><use transform="matrix(0.04938271604938272,0,0,0.04938271604938272,83.75308641975309,0)" xlink:href="#bu"/><use transform="matrix(0.04938271604938272,0,0,0.04938271604938272,94.5679012345679,0)" xlink:href="#by"/></g><g id="C"><use transform="matrix(0.04938271604938272,0,0,0.04938271604938272,0,0)" xlink:href="#bs"/><use transform="matrix(0.04938271604938272,0,0,0.04938271604938272,12.790123456790125,0)" xlink:href="#bm"/><use transform="matrix(0.04938271604938272,0,0,0.04938271604938272,22.66666666666667,0)" xlink:href="#bp"/><use transform="matrix(0.04938271604938272,0,0,0.04938271604938272,32.543209876543216,0)" xlink:href="#bm"/><use transform="matrix(0.04938271604938272,0,0,0.04938271604938272,42.41975308641976,0)" xlink:href="#bt"/><use transform="matrix(0.04938271604938272,0,0,0.04938271604938272,53.23456790123457,0)" xlink:href="#bm"/></g><path fill="#282c33" d="M128 0H69L1-190h53L99-40l48-150h52" id="bI"/><g id="D"><use transform="matrix(0.04938271604938272,0,0,0.04938271604938272,0,0)" xlink:href="#bm"/><use transform="matrix(0.04938271604938272,0,0,0.04938271604938272,9.876543209876544,0)" xlink:href="#bn"/><use transform="matrix(0.04938271604938272,0,0,0.04938271604938272,20.69135802469136,0)" xlink:href="#bI"/><use transform="matrix(0.04938271604938272,0,0,0.04938271604938272,30.567901234567906,0)" xlink:href="#bo"/><use transform="matrix(0.04938271604938272,0,0,0.04938271604938272,35.50617283950618,0)" xlink:href="#bq"/></g><g id="E"><use transform="matrix(0.04938271604938272,0,0,0.04938271604938272,0,0)" xlink:href="#bp"/><use transform="matrix(0.04938271604938272,0,0,0.04938271604938272,9.876543209876544,0)" xlink:href="#bA"/><use transform="matrix(0.04938271604938272,0,0,0.04938271604938272,16.790123456790127,0)" xlink:href="#bo"/><use transform="matrix(0.04938271604938272,0,0,0.04938271604938272,21.7283950617284,0)" xlink:href="#bq"/></g><g id="F"><use transform="matrix(0.04938271604938272,0,0,0.04938271604938272,0,0)" xlink:href="#bC"/><use transform="matrix(0.04938271604938272,0,0,0.04938271604938272,4.938271604938272,0)" xlink:href="#bo"/><use transform="matrix(0.04938271604938272,0,0,0.04938271604938272,9.876543209876544,0)" xlink:href="#by"/><use transform="matrix(0.04938271604938272,0,0,0.04938271604938272,19.75308641975309,0)" xlink:href="#bl"/><use transform="matrix(0.04938271604938272,0,0,0.04938271604938272,25.629629629629633,0)" xlink:href="#bq"/></g><g id="G"><use transform="matrix(0.04938271604938272,0,0,0.04938271604938272,0,0)" xlink:href="#bF"/><use transform="matrix(0.04938271604938272,0,0,0.04938271604938272,10.814814814814815,0)" xlink:href="#bq"/><use transform="matrix(0.04938271604938272,0,0,0.04938271604938272,20.69135802469136,0)" xlink:href="#bG"/><use transform="matrix(0.04938271604938272,0,0,0.04938271604938272,31.506172839506174,0)" xlink:href="#bq"/><use transform="matrix(0.04938271604938272,0,0,0.04938271604938272,41.38271604938272,0)" xlink:href="#bH"/><use transform="matrix(0.04938271604938272,0,0,0.04938271604938272,57.18518518518519,0)" xlink:href="#bm"/><use transform="matrix(0.04938271604938272,0,0,0.04938271604938272,67.06172839506173,0)" xlink:href="#bn"/><use transform="matrix(0.04938271604938272,0,0,0.04938271604938272,77.87654320987654,0)" xlink:href="#bl"/><use transform="matrix(0.04938271604938272,0,0,0.04938271604938272,83.75308641975309,0)" xlink:href="#bu"/></g><g id="H"><use transform="matrix(0.04938271604938272,0,0,0.04938271604938272,0,0)" xlink:href="#bm"/><use transform="matrix(0.04938271604938272,0,0,0.04938271604938272,9.876543209876544,0)" xlink:href="#by"/><use transform="matrix(0.04938271604938272,0,0,0.04938271604938272,19.75308641975309,0)" xlink:href="#bF"/><use transform="matrix(0.04938271604938272,0,0,0.04938271604938272,30.567901234567906,0)" xlink:href="#bm"/><use transform="matrix(0.04938271604938272,0,0,0.04938271604938272,40.44444444444445,0)" xlink:href="#bA"/><use transform="matrix(0.04938271604938272,0,0,0.04938271604938272,47.35802469135803,0)" xlink:href="#bq"/><use transform="matrix(0.04938271604938272,0,0,0.04938271604938272,57.23456790123457,0)" xlink:href="#br"/></g><path fill="#282c33" d="M76-208v77h127v40H76V0H24v-248h183v40H76" id="bJ"/><path fill="#282c33" d="M12 0v-35l95-120H19v-35h142v35L67-36h103V0H12" id="bK"/><g id="I"><use transform="matrix(0.04938271604938272,0,0,0.04938271604938272,0,0)" xlink:href="#bJ"/><use transform="matrix(0.04938271604938272,0,0,0.04938271604938272,10.814814814814815,0)" xlink:href="#bq"/><use transform="matrix(0.04938271604938272,0,0,0.04938271604938272,20.69135802469136,0)" xlink:href="#bK"/></g><path fill="#282c33" d="M84 4C32 4 15-41 15-95c0-55 18-99 73-99 29 0 47 12 58 34l2-30h48l-1 265h-49V-32C136-9 114 4 84 4zm21-34c32 0 41-29 41-66 0-36-9-64-40-64-33 0-39 30-40 65 0 43 13 65 39 65" id="bL"/><g id="J"><use transform="matrix(0.04938271604938272,0,0,0.04938271604938272,0,0)" xlink:href="#bs"/><use transform="matrix(0.04938271604938272,0,0,0.04938271604938272,12.790123456790125,0)" xlink:href="#bq"/><use transform="matrix(0.04938271604938272,0,0,0.04938271604938272,22.66666666666667,0)" xlink:href="#bn"/><use transform="matrix(0.04938271604938272,0,0,0.04938271604938272,33.48148148148149,0)" xlink:href="#bL"/><use transform="matrix(0.04938271604938272,0,0,0.04938271604938272,44.296296296296305,0)" xlink:href="#bk"/><use transform="matrix(0.04938271604938272,0,0,0.04938271604938272,55.111111111111114,0)" xlink:href="#bm"/><use transform="matrix(0.04938271604938272,0,0,0.04938271604938272,64.98765432098767,0)" xlink:href="#bq"/><use transform="matrix(0.04938271604938272,0,0,0.04938271604938272,74.86419753086422,0)" xlink:href="#bH"/><use transform="matrix(0.04938271604938272,0,0,0.04938271604938272,90.66666666666669,0)" xlink:href="#bm"/><use transform="matrix(0.04938271604938272,0,0,0.04938271604938272,100.54320987654323,0)" xlink:href="#bn"/><use transform="matrix(0.04938271604938272,0,0,0.04938271604938272,111.35802469135804,0)" xlink:href="#bl"/><use transform="matrix(0.04938271604938272,0,0,0.04938271604938272,117.23456790123458,0)" xlink:href="#bu"/></g><g id="K"><use transform="matrix(0.04938271604938272,0,0,0.04938271604938272,0,0)" xlink:href="#bB"/><use transform="matrix(0.04938271604938272,0,0,0.04938271604938272,10.814814814814815,0)" xlink:href="#bu"/><use transform="matrix(0.04938271604938272,0,0,0.04938271604938272,21.62962962962963,0)" xlink:href="#by"/></g><g id="L"><use transform="matrix(0.04938271604938272,0,0,0.04938271604938272,0,0)" xlink:href="#bo"/><use transform="matrix(0.04938271604938272,0,0,0.04938271604938272,4.938271604938272,0)" xlink:href="#bn"/><use transform="matrix(0.04938271604938272,0,0,0.04938271604938272,15.753086419753087,0)" xlink:href="#by"/><use transform="matrix(0.04938271604938272,0,0,0.04938271604938272,25.629629629629633,0)" xlink:href="#bp"/><use transform="matrix(0.04938271604938272,0,0,0.04938271604938272,35.50617283950618,0)" xlink:href="#bA"/><use transform="matrix(0.04938271604938272,0,0,0.04938271604938272,42.41975308641976,0)" xlink:href="#bo"/><use transform="matrix(0.04938271604938272,0,0,0.04938271604938272,47.35802469135803,0)" xlink:href="#bl"/><use transform="matrix(0.04938271604938272,0,0,0.04938271604938272,53.23456790123457,0)" xlink:href="#bu"/><use transform="matrix(0.04938271604938272,0,0,0.04938271604938272,64.0493827160494,0)" xlink:href="#by"/></g><path fill="#282c33" d="M67-93c0 74 22 123 53 168H70C40 30 18-18 18-93s22-123 52-168h50c-32 44-53 94-53 168" id="bM"/><path fill="#282c33" d="M24 0v-248h52V0H24" id="bN"/><path fill="#282c33" d="M102-93c0 74-22 123-52 168H0C30 29 54-18 53-93c0-74-22-123-53-168h50c30 45 52 94 52 168" id="bO"/><g id="M"><use transform="matrix(0.04938271604938272,0,0,0.04938271604938272,0,0)" xlink:href="#bM"/><use transform="matrix(0.04938271604938272,0,0,0.04938271604938272,5.8765432098765435,0)" xlink:href="#bN"/><use transform="matrix(0.04938271604938272,0,0,0.04938271604938272,10.814814814814817,0)" xlink:href="#bj"/><use transform="matrix(0.04938271604938272,0,0,0.04938271604938272,23.604938271604944,0)" xlink:href="#bO"/></g><g id="N"><use transform="matrix(0.06172839506172839,0,0,0.06172839506172839,0,0)" xlink:href="#av"/><use transform="matrix(0.06172839506172839,0,0,0.06172839506172839,14.814814814814813,0)" xlink:href="#az"/><use transform="matrix(0.06172839506172839,0,0,0.06172839506172839,27.160493827160494,0)" xlink:href="#ay"/><use transform="matrix(0.06172839506172839,0,0,0.06172839506172839,33.333333333333336,0)" xlink:href="#au"/><use transform="matrix(0.06172839506172839,0,0,0.06172839506172839,45.67901234567901,0)" xlink:href="#aY"/></g><g id="O"><use transform="matrix(0.06172839506172839,0,0,0.06172839506172839,0,0)" xlink:href="#aF"/><use transform="matrix(0.06172839506172839,0,0,0.06172839506172839,13.518518518518517,0)" xlink:href="#aw"/><use transform="matrix(0.06172839506172839,0,0,0.06172839506172839,18.39506172839506,0)" xlink:href="#at"/><use transform="matrix(0.06172839506172839,0,0,0.06172839506172839,30.74074074074074,0)" xlink:href="#aB"/><use transform="matrix(0.06172839506172839,0,0,0.06172839506172839,43.08641975308642,0)" xlink:href="#at"/><use transform="matrix(0.06172839506172839,0,0,0.06172839506172839,55.432098765432094,0)" xlink:href="#aD"/><use transform="matrix(0.06172839506172839,0,0,0.06172839506172839,66.5432098765432,0)" xlink:href="#az"/><use transform="matrix(0.06172839506172839,0,0,0.06172839506172839,78.88888888888889,0)" xlink:href="#aw"/><use transform="matrix(0.06172839506172839,0,0,0.06172839506172839,83.76543209876543,0)" xlink:href="#aY"/><use transform="matrix(0.06172839506172839,0,0,0.06172839506172839,91.11111111111111,0)" xlink:href="#au"/></g><g id="P"><use transform="matrix(0.024691358024691343,0,0,0.024691358024691343,0,0)" xlink:href="#bf"/><use transform="matrix(0.024691358024691343,0,0,0.024691358024691343,2.4691358024691343,0)" xlink:href="#aG"/><use transform="matrix(0.024691358024691343,0,0,0.024691358024691343,8.395061728395056,0)" xlink:href="#az"/><use transform="matrix(0.024691358024691343,0,0,0.024691358024691343,13.333333333333325,0)" xlink:href="#aY"/><use transform="matrix(0.024691358024691343,0,0,0.024691358024691343,16.271604938271594,0)" xlink:href="#ax"/><use transform="matrix(0.024691358024691343,0,0,0.024691358024691343,20.716049382716037,0)" xlink:href="#au"/><use transform="matrix(0.024691358024691343,0,0,0.024691358024691343,25.654320987654305,0)" xlink:href="#at"/><use transform="matrix(0.024691358024691343,0,0,0.024691358024691343,30.592592592592574,0)" xlink:href="#bg"/></g><g id="R"><use transform="matrix(0.04938271604938272,0,0,0.04938271604938272,0,0)" xlink:href="#bn"/><use transform="matrix(0.04938271604938272,0,0,0.04938271604938272,10.814814814814815,0)" xlink:href="#bu"/><use transform="matrix(0.04938271604938272,0,0,0.04938271604938272,21.62962962962963,0)" xlink:href="#bl"/><use transform="matrix(0.04938271604938272,0,0,0.04938271604938272,27.506172839506174,0)" xlink:href="#bo"/><use transform="matrix(0.04938271604938272,0,0,0.04938271604938272,32.44444444444444,0)" xlink:href="#bv"/><use transform="matrix(0.04938271604938272,0,0,0.04938271604938272,38.32098765432099,0)" xlink:href="#bo"/><use transform="matrix(0.04938271604938272,0,0,0.04938271604938272,43.25925925925926,0)" xlink:href="#bp"/><use transform="matrix(0.04938271604938272,0,0,0.04938271604938272,53.135802469135804,0)" xlink:href="#bq"/><use transform="matrix(0.04938271604938272,0,0,0.04938271604938272,63.01234567901235,0)" xlink:href="#bw"/><use transform="matrix(0.04938271604938272,0,0,0.04938271604938272,72.88888888888889,0)" xlink:href="#bx"/><use transform="matrix(0.04938271604938272,0,0,0.04938271604938272,83.7037037037037,0)" xlink:href="#bm"/><use transform="matrix(0.04938271604938272,0,0,0.04938271604938272,93.58024691358024,0)" xlink:href="#by"/><use transform="matrix(0.04938271604938272,0,0,0.04938271604938272,103.45679012345677,0)" xlink:href="#br"/></g><use transform="matrix(0.04938271604938272,0,0,0.04938271604938272,0,0)" xlink:href="#bm" id="S"/><g id="T"><use transform="matrix(0.04938271604938272,0,0,0.04938271604938272,0,0)" xlink:href="#by"/><use transform="matrix(0.04938271604938272,0,0,0.04938271604938272,9.876543209876544,0)" xlink:href="#bl"/><use transform="matrix(0.04938271604938272,0,0,0.04938271604938272,15.753086419753087,0)" xlink:href="#bq"/><use transform="matrix(0.04938271604938272,0,0,0.04938271604938272,25.629629629629633,0)" xlink:href="#bl"/><use transform="matrix(0.04938271604938272,0,0,0.04938271604938272,31.506172839506174,0)" xlink:href="#bk"/><use transform="matrix(0.04938271604938272,0,0,0.04938271604938272,42.320987654320994,0)" xlink:href="#by"/></g><g id="U"><use transform="matrix(0.04938271604938272,0,0,0.04938271604938272,0,0)" xlink:href="#bF"/><use transform="matrix(0.04938271604938272,0,0,0.04938271604938272,10.814814814814815,0)" xlink:href="#bq"/><use transform="matrix(0.04938271604938272,0,0,0.04938271604938272,20.69135802469136,0)" xlink:href="#bG"/><use transform="matrix(0.04938271604938272,0,0,0.04938271604938272,31.506172839506174,0)" xlink:href="#bq"/><use transform="matrix(0.04938271604938272,0,0,0.04938271604938272,41.38271604938272,0)" xlink:href="#bH"/><use transform="matrix(0.04938271604938272,0,0,0.04938271604938272,57.18518518518519,0)" xlink:href="#bm"/><use transform="matrix(0.04938271604938272,0,0,0.04938271604938272,67.06172839506173,0)" xlink:href="#bn"/><use transform="matrix(0.04938271604938272,0,0,0.04938271604938272,77.87654320987654,0)" xlink:href="#bl"/><use transform="matrix(0.04938271604938272,0,0,0.04938271604938272,83.75308641975309,0)" xlink:href="#bu"/><use transform="matrix(0.04938271604938272,0,0,0.04938271604938272,94.5679012345679,0)" xlink:href="#by"/><use transform="matrix(0.04938271604938272,0,0,0.04938271604938272,104.44444444444446,0)" xlink:href="#br"/></g><g id="V"><use transform="matrix(0.04938271604938272,0,0,0.04938271604938272,0,0)" xlink:href="#bC"/><use transform="matrix(0.04938271604938272,0,0,0.04938271604938272,4.938271604938272,0)" xlink:href="#bu"/><use transform="matrix(0.04938271604938272,0,0,0.04938271604938272,15.753086419753087,0)" xlink:href="#bl"/><use transform="matrix(0.04938271604938272,0,0,0.04938271604938272,21.62962962962963,0)" xlink:href="#bm"/></g><g id="W"><use transform="matrix(0.04938271604938272,0,0,0.04938271604938272,0,0)" xlink:href="#bF"/><use transform="matrix(0.04938271604938272,0,0,0.04938271604938272,10.814814814814815,0)" xlink:href="#bq"/><use transform="matrix(0.04938271604938272,0,0,0.04938271604938272,20.69135802469136,0)" xlink:href="#bG"/><use transform="matrix(0.04938271604938272,0,0,0.04938271604938272,31.506172839506174,0)" xlink:href="#bq"/><use transform="matrix(0.04938271604938272,0,0,0.04938271604938272,41.38271604938272,0)" xlink:href="#bH"/><use transform="matrix(0.04938271604938272,0,0,0.04938271604938272,57.18518518518519,0)" xlink:href="#bm"/><use transform="matrix(0.04938271604938272,0,0,0.04938271604938272,67.06172839506173,0)" xlink:href="#bn"/><use transform="matrix(0.04938271604938272,0,0,0.04938271604938272,77.87654320987654,0)" xlink:href="#bl"/><use transform="matrix(0.04938271604938272,0,0,0.04938271604938272,83.75308641975309,0)" xlink:href="#bu"/><use transform="matrix(0.04938271604938272,0,0,0.04938271604938272,94.5679012345679,0)" xlink:href="#br"/></g><path fill="#282c33" d="M144 0l-44-69L55 0H2l70-98-66-92h53l41 62 40-62h54l-67 91 71 99h-54" id="bP"/><g id="X"><use transform="matrix(0.04938271604938272,0,0,0.04938271604938272,0,0)" xlink:href="#bm"/><use transform="matrix(0.04938271604938272,0,0,0.04938271604938272,9.876543209876544,0)" xlink:href="#bP"/><use transform="matrix(0.04938271604938272,0,0,0.04938271604938272,19.75308641975309,0)" xlink:href="#bl"/><use transform="matrix(0.04938271604938272,0,0,0.04938271604938272,25.629629629629633,0)" xlink:href="#bA"/><use transform="matrix(0.04938271604938272,0,0,0.04938271604938272,32.543209876543216,0)" xlink:href="#bq"/><use transform="matrix(0.04938271604938272,0,0,0.04938271604938272,42.41975308641976,0)" xlink:href="#bl"/><use transform="matrix(0.04938271604938272,0,0,0.04938271604938272,48.296296296296305,0)" xlink:href="#bu"/></g><g id="Y"><use transform="matrix(0.04938271604938272,0,0,0.04938271604938272,0,0)" xlink:href="#bB"/><use transform="matrix(0.04938271604938272,0,0,0.04938271604938272,10.814814814814815,0)" xlink:href="#bm"/></g><g id="Z"><use transform="matrix(0.04938271604938272,0,0,0.04938271604938272,0,0)" xlink:href="#bF"/><use transform="matrix(0.04938271604938272,0,0,0.04938271604938272,10.814814814814815,0)" xlink:href="#bq"/><use transform="matrix(0.04938271604938272,0,0,0.04938271604938272,20.69135802469136,0)" xlink:href="#bG"/><use transform="matrix(0.04938271604938272,0,0,0.04938271604938272,31.506172839506174,0)" xlink:href="#bq"/><use transform="matrix(0.04938271604938272,0,0,0.04938271604938272,41.38271604938272,0)" xlink:href="#bH"/><use transform="matrix(0.04938271604938272,0,0,0.04938271604938272,57.18518518518519,0)" xlink:href="#bm"/><use transform="matrix(0.04938271604938272,0,0,0.04938271604938272,67.06172839506173,0)" xlink:href="#bn"/><use transform="matrix(0.04938271604938272,0,0,0.04938271604938272,77.87654320987654,0)" xlink:href="#bl"/><use transform="matrix(0.04938271604938272,0,0,0.04938271604938272,83.75308641975309,0)" xlink:href="#bu"/></g><path fill="#282c33" d="M24 0v-248h195v40H76v63h132v40H76v65h150V0H24" id="bQ"/><g id="aa"><use transform="matrix(0.04938271604938272,0,0,0.04938271604938272,0,0)" xlink:href="#bQ"/><use transform="matrix(0.04938271604938272,0,0,0.04938271604938272,11.851851851851853,0)" xlink:href="#bn"/><use transform="matrix(0.04938271604938272,0,0,0.04938271604938272,22.666666666666668,0)" xlink:href="#bI"/><use transform="matrix(0.04938271604938272,0,0,0.04938271604938272,32.543209876543216,0)" xlink:href="#bo"/><use transform="matrix(0.04938271604938272,0,0,0.04938271604938272,37.48148148148149,0)" xlink:href="#bq"/></g><path fill="#282c33" d="M132-34C116-15 102 5 68 4 31 3 10-16 10-54c-1-60 55-63 116-61 1-26-3-47-28-47-18 1-26 9-28 27l-52-2c7-38 36-58 82-57s74 22 75 68l1 82c-1 14 12 18 25 15v27c-30 8-71 5-69-32zm-48 3c29 0 43-24 42-57-32 0-66-3-65 30 0 17 8 27 23 27zm82-228c-2 27-9 52-40 51-27-1-66-46-73 0H29c0-29 9-51 39-51 28 0 66 44 74 0h24" id="bR"/><g id="ab"><use transform="matrix(0.04938271604938272,0,0,0.04938271604938272,0,0)" xlink:href="#bn"/><use transform="matrix(0.04938271604938272,0,0,0.04938271604938272,10.814814814814815,0)" xlink:href="#bu"/><use transform="matrix(0.04938271604938272,0,0,0.04938271604938272,21.62962962962963,0)" xlink:href="#bl"/><use transform="matrix(0.04938271604938272,0,0,0.04938271604938272,27.506172839506174,0)" xlink:href="#bo"/><use transform="matrix(0.04938271604938272,0,0,0.04938271604938272,32.44444444444444,0)" xlink:href="#bv"/><use transform="matrix(0.04938271604938272,0,0,0.04938271604938272,38.32098765432099,0)" xlink:href="#bo"/><use transform="matrix(0.04938271604938272,0,0,0.04938271604938272,43.25925925925926,0)" xlink:href="#bp"/><use transform="matrix(0.04938271604938272,0,0,0.04938271604938272,53.135802469135804,0)" xlink:href="#bq"/><use transform="matrix(0.04938271604938272,0,0,0.04938271604938272,63.01234567901235,0)" xlink:href="#bw"/><use transform="matrix(0.04938271604938272,0,0,0.04938271604938272,72.88888888888889,0)" xlink:href="#bR"/><use transform="matrix(0.04938271604938272,0,0,0.04938271604938272,82.76543209876543,0)" xlink:href="#bu"/></g><g id="ac"><use transform="matrix(0.04938271604938272,0,0,0.04938271604938272,0,0)" xlink:href="#bF"/><use transform="matrix(0.04938271604938272,0,0,0.04938271604938272,10.814814814814815,0)" xlink:href="#bq"/><use transform="matrix(0.04938271604938272,0,0,0.04938271604938272,20.69135802469136,0)" xlink:href="#bA"/><use transform="matrix(0.04938271604938272,0,0,0.04938271604938272,27.604938271604947,0)" xlink:href="#bq"/></g><path fill="#333" d="M132-34C116-15 102 5 68 4 31 3 10-16 10-54c-1-60 55-63 116-61 1-26-3-47-28-47-18 1-26 9-28 27l-52-2c7-38 36-58 82-57s74 22 75 68l1 82c-1 14 12 18 25 15v27c-30 8-71 5-69-32zm-48 3c29 0 43-24 42-57-32 0-66-3-65 30 0 17 8 27 23 27zm82-228c-2 27-9 52-40 51-27-1-66-46-73 0H29c0-29 9-51 39-51 28 0 66 44 74 0h24" id="bS"/><g id="ad"><use transform="matrix(0.04938271604938272,0,0,0.04938271604938272,0,0)" xlink:href="#aJ"/><use transform="matrix(0.04938271604938272,0,0,0.04938271604938272,10.814814814814815,0)" xlink:href="#aN"/><use transform="matrix(0.04938271604938272,0,0,0.04938271604938272,21.62962962962963,0)" xlink:href="#aO"/><use transform="matrix(0.04938271604938272,0,0,0.04938271604938272,27.506172839506174,0)" xlink:href="#aL"/><use transform="matrix(0.04938271604938272,0,0,0.04938271604938272,32.44444444444444,0)" xlink:href="#aP"/><use transform="matrix(0.04938271604938272,0,0,0.04938271604938272,38.32098765432099,0)" xlink:href="#aL"/><use transform="matrix(0.04938271604938272,0,0,0.04938271604938272,43.25925925925926,0)" xlink:href="#aQ"/><use transform="matrix(0.04938271604938272,0,0,0.04938271604938272,53.135802469135804,0)" xlink:href="#aM"/><use transform="matrix(0.04938271604938272,0,0,0.04938271604938272,63.01234567901235,0)" xlink:href="#aR"/><use transform="matrix(0.04938271604938272,0,0,0.04938271604938272,72.88888888888889,0)" xlink:href="#bS"/><use transform="matrix(0.04938271604938272,0,0,0.04938271604938272,82.76543209876543,0)" xlink:href="#aN"/></g><path fill="#333" d="M135-194c53 0 70 44 70 98 0 56-19 98-73 100-31 1-45-17-59-34 3 33 2 69 2 105H25l-1-265h48c2 10 0 23 3 31 11-24 29-35 60-35zM114-30c33 0 39-31 40-66 0-38-9-64-40-64-56 0-55 130 0 130" id="bT"/><path fill="#333" d="M135-150c-39-12-60 13-60 57V0H25l-1-190h47c2 13-1 29 3 40 6-28 27-53 61-41v41" id="bU"/><g id="ae"><use transform="matrix(0.04938271604938272,0,0,0.04938271604938272,0,0)" xlink:href="#bT"/><use transform="matrix(0.04938271604938272,0,0,0.04938271604938272,10.814814814814815,0)" xlink:href="#aM"/><use transform="matrix(0.04938271604938272,0,0,0.04938271604938272,20.69135802469136,0)" xlink:href="#bU"/><use transform="matrix(0.04938271604938272,0,0,0.04938271604938272,27.604938271604947,0)" xlink:href="#aM"/></g><path fill="#fff" d="M233-177c-1 41-23 64-60 70L243 0h-38l-65-103H63V0H30v-248c88 3 205-21 203 71zM63-129c60-2 137 13 137-47 0-61-80-42-137-45v92" id="bV"/><path fill="#fff" d="M145-31C134-9 116 4 85 4 32 4 16-35 15-94c0-59 17-99 70-100 32-1 48 14 60 33 0-11-1-24 2-32h30l-1 268h-32zM93-21c41 0 51-33 51-76s-8-73-50-73c-40 0-46 35-46 75s5 74 45 74" id="bW"/><g id="af"><use transform="matrix(0.06172839506172839,0,0,0.06172839506172839,0,0)" xlink:href="#bV"/><use transform="matrix(0.06172839506172839,0,0,0.06172839506172839,15.987654320987653,0)" xlink:href="#aB"/><use transform="matrix(0.06172839506172839,0,0,0.06172839506172839,28.333333333333332,0)" xlink:href="#at"/><use transform="matrix(0.06172839506172839,0,0,0.06172839506172839,40.67901234567901,0)" xlink:href="#bW"/><use transform="matrix(0.06172839506172839,0,0,0.06172839506172839,53.02469135802469,0)" xlink:href="#as"/><use transform="matrix(0.06172839506172839,0,0,0.06172839506172839,65.37037037037037,0)" xlink:href="#az"/><use transform="matrix(0.06172839506172839,0,0,0.06172839506172839,77.71604938271605,0)" xlink:href="#aB"/><use transform="matrix(0.06172839506172839,0,0,0.06172839506172839,90.06172839506173,0)" xlink:href="#aA"/><use transform="matrix(0.06172839506172839,0,0,0.06172839506172839,108.51851851851852,0)" xlink:href="#az"/><use transform="matrix(0.06172839506172839,0,0,0.06172839506172839,120.8641975308642,0)" xlink:href="#at"/><use transform="matrix(0.06172839506172839,0,0,0.06172839506172839,133.20987654320987,0)" xlink:href="#ay"/><use transform="matrix(0.06172839506172839,0,0,0.06172839506172839,139.3827160493827,0)" xlink:href="#au"/></g><path fill="#333" d="M240-174c0 40-23 61-54 70L253 0h-59l-57-94H76V0H24v-248c93 4 217-23 216 74zM76-134c48-2 112 12 112-38 0-48-66-32-112-35v73" id="bX"/><path fill="#333" d="M25 0v-261h50V0H25" id="bY"/><path fill="#333" d="M12 0v-35l95-120H19v-35h142v35L67-36h103V0H12" id="bZ"/><g id="ag"><use transform="matrix(0.04938271604938272,0,0,0.04938271604938272,0,0)" xlink:href="#bX"/><use transform="matrix(0.04938271604938272,0,0,0.04938271604938272,12.790123456790125,0)" xlink:href="#aT"/><use transform="matrix(0.04938271604938272,0,0,0.04938271604938272,22.66666666666667,0)" xlink:href="#aM"/><use transform="matrix(0.04938271604938272,0,0,0.04938271604938272,32.543209876543216,0)" xlink:href="#bY"/><use transform="matrix(0.04938271604938272,0,0,0.04938271604938272,37.48148148148149,0)" xlink:href="#aL"/><use transform="matrix(0.04938271604938272,0,0,0.04938271604938272,42.41975308641976,0)" xlink:href="#bZ"/><use transform="matrix(0.04938271604938272,0,0,0.04938271604938272,51.308641975308646,0)" xlink:href="#aM"/></g><use transform="matrix(0.04938271604938272,0,0,0.04938271604938272,0,0)" xlink:href="#aN" id="ah"/><path fill="#333" d="M84 4C32 4 15-41 15-95c0-55 18-99 73-99 29 0 47 12 58 34l2-30h48l-1 265h-49V-32C136-9 114 4 84 4zm21-34c32 0 41-29 41-66 0-36-9-64-40-64-33 0-39 30-40 65 0 43 13 65 39 65" id="ca"/><path fill="#333" d="M220-157c-53 9-28 100-34 157h-49v-107c1-27-5-49-29-50C55-147 81-57 75 0H25l-1-190h47c2 12-1 28 3 38 10-53 101-56 108 0 13-22 24-43 59-42 82 1 51 116 57 194h-49v-107c-1-25-5-48-29-50" id="cb"/><g id="ai"><use transform="matrix(0.04938271604938272,0,0,0.04938271604938272,0,0)" xlink:href="#bU"/><use transform="matrix(0.04938271604938272,0,0,0.04938271604938272,6.913580246913581,0)" xlink:href="#aM"/><use transform="matrix(0.04938271604938272,0,0,0.04938271604938272,16.790123456790127,0)" xlink:href="#aJ"/><use transform="matrix(0.04938271604938272,0,0,0.04938271604938272,27.604938271604947,0)" xlink:href="#ca"/><use transform="matrix(0.04938271604938272,0,0,0.04938271604938272,38.41975308641976,0)" xlink:href="#aV"/><use transform="matrix(0.04938271604938272,0,0,0.04938271604938272,49.23456790123458,0)" xlink:href="#aT"/><use transform="matrix(0.04938271604938272,0,0,0.04938271604938272,59.111111111111114,0)" xlink:href="#aM"/><use transform="matrix(0.04938271604938272,0,0,0.04938271604938272,68.98765432098767,0)" xlink:href="#cb"/><use transform="matrix(0.04938271604938272,0,0,0.04938271604938272,84.79012345679014,0)" xlink:href="#aT"/><use transform="matrix(0.04938271604938272,0,0,0.04938271604938272,94.66666666666669,0)" xlink:href="#aJ"/><use transform="matrix(0.04938271604938272,0,0,0.04938271604938272,105.4814814814815,0)" xlink:href="#aO"/><use transform="matrix(0.04938271604938272,0,0,0.04938271604938272,111.35802469135804,0)" xlink:href="#aN"/></g><g id="aj"><use transform="matrix(0.04938271604938272,0,0,0.04938271604938272,0,0)" xlink:href="#aI"/><use transform="matrix(0.04938271604938272,0,0,0.04938271604938272,11.851851851851853,0)" xlink:href="#aJ"/><use transform="matrix(0.04938271604938272,0,0,0.04938271604938272,22.666666666666668,0)" xlink:href="#aK"/><use transform="matrix(0.04938271604938272,0,0,0.04938271604938272,32.543209876543216,0)" xlink:href="#aL"/><use transform="matrix(0.04938271604938272,0,0,0.04938271604938272,37.48148148148149,0)" xlink:href="#aM"/></g><path fill="#333" d="M24 0v-248h52v208h133V0H24" id="cc"/><g id="ak"><use transform="matrix(0.04938271604938272,0,0,0.04938271604938272,0,0)" xlink:href="#cc"/><use transform="matrix(0.04938271604938272,0,0,0.04938271604938272,10.814814814814815,0)" xlink:href="#aL"/><use transform="matrix(0.04938271604938272,0,0,0.04938271604938272,15.753086419753087,0)" xlink:href="#aU"/><use transform="matrix(0.04938271604938272,0,0,0.04938271604938272,25.629629629629633,0)" xlink:href="#aO"/><use transform="matrix(0.04938271604938272,0,0,0.04938271604938272,31.506172839506174,0)" xlink:href="#aM"/></g><g id="al"><use transform="matrix(0.04938271604938272,0,0,0.04938271604938272,0,0)" xlink:href="#bU"/><use transform="matrix(0.04938271604938272,0,0,0.04938271604938272,6.913580246913581,0)" xlink:href="#aM"/><use transform="matrix(0.04938271604938272,0,0,0.04938271604938272,16.790123456790127,0)" xlink:href="#aJ"/><use transform="matrix(0.04938271604938272,0,0,0.04938271604938272,27.604938271604947,0)" xlink:href="#ca"/><use transform="matrix(0.04938271604938272,0,0,0.04938271604938272,38.41975308641976,0)" xlink:href="#aV"/><use transform="matrix(0.04938271604938272,0,0,0.04938271604938272,49.23456790123458,0)" xlink:href="#aT"/><use transform="matrix(0.04938271604938272,0,0,0.04938271604938272,59.111111111111114,0)" xlink:href="#aM"/><use transform="matrix(0.04938271604938272,0,0,0.04938271604938272,68.98765432098767,0)" xlink:href="#aW"/><use transform="matrix(0.04938271604938272,0,0,0.04938271604938272,79.80246913580248,0)" xlink:href="#aM"/></g><g id="am"><use transform="matrix(0.024691358024691343,0,0,0.024691358024691343,0,0)" xlink:href="#bf"/><use transform="matrix(0.024691358024691343,0,0,0.024691358024691343,2.4691358024691343,0)" xlink:href="#aA"/><use transform="matrix(0.024691358024691343,0,0,0.024691358024691343,9.851851851851846,0)" xlink:href="#aw"/><use transform="matrix(0.024691358024691343,0,0,0.024691358024691343,11.802469135802461,0)" xlink:href="#aD"/><use transform="matrix(0.024691358024691343,0,0,0.024691358024691343,16.246913580246904,0)" xlink:href="#aY"/><use transform="matrix(0.024691358024691343,0,0,0.024691358024691343,19.185185185185173,0)" xlink:href="#au"/><use transform="matrix(0.024691358024691343,0,0,0.024691358024691343,24.12345679012344,0)" xlink:href="#ax"/><use transform="matrix(0.024691358024691343,0,0,0.024691358024691343,28.567901234567884,0)" xlink:href="#az"/><use transform="matrix(0.024691358024691343,0,0,0.024691358024691343,33.50617283950615,0)" xlink:href="#aY"/><use transform="matrix(0.024691358024691343,0,0,0.024691358024691343,36.44444444444442,0)" xlink:href="#aZ"/><use transform="matrix(0.024691358024691343,0,0,0.024691358024691343,40.888888888888864,0)" xlink:href="#aw"/><use transform="matrix(0.024691358024691343,0,0,0.024691358024691343,42.83950617283948,0)" xlink:href="#aD"/><use transform="matrix(0.024691358024691343,0,0,0.024691358024691343,47.28395061728392,0)" xlink:href="#az"/><use transform="matrix(0.024691358024691343,0,0,0.024691358024691343,52.22222222222219,0)" xlink:href="#bg"/></g><path d="M30-248c118-7 216 8 213 122C240-48 200 0 122 0H30v-248zM63-27c89 8 146-16 146-99s-60-101-146-95v194" id="cd"/><path d="M24-231v-30h32v30H24zM24 0v-190h32V0H24" id="ce"/><path d="M141-36C126-15 110 5 73 4 37 3 15-17 15-53c-1-64 63-63 125-63 3-35-9-54-41-54-24 1-41 7-42 31l-33-3c5-37 33-52 76-52 45 0 72 20 72 64v82c-1 20 7 32 28 27v20c-31 9-61-2-59-35zM48-53c0 20 12 33 32 33 41-3 63-29 60-74-43 2-92-5-92 41" id="cf"/><path d="M177-190C167-65 218 103 67 71c-23-6-38-20-44-43l32-5c15 47 100 32 89-28v-30C133-14 115 1 83 1 29 1 15-40 15-95c0-56 16-97 71-98 29-1 48 16 59 35 1-10 0-23 2-32h30zM94-22c36 0 50-32 50-73 0-42-14-75-50-75-39 0-46 34-46 75s6 73 46 73" id="cg"/><path d="M114-163C36-179 61-72 57 0H25l-1-190h30c1 12-1 29 2 39 6-27 23-49 58-41v29" id="ch"/><path d="M210-169c-67 3-38 105-44 169h-31v-121c0-29-5-50-35-48C34-165 62-65 56 0H25l-1-190h30c1 10-1 24 2 32 10-44 99-50 107 0 11-21 27-35 58-36 85-2 47 119 55 194h-31v-121c0-29-5-49-35-48" id="ci"/><g id="an"><use transform="matrix(0.08888888888888889,0,0,0.08888888888888889,0,0)" xlink:href="#cd"/><use transform="matrix(0.08888888888888889,0,0,0.08888888888888889,23.022222222222222,0)" xlink:href="#ce"/><use transform="matrix(0.08888888888888889,0,0,0.08888888888888889,30.044444444444444,0)" xlink:href="#cf"/><use transform="matrix(0.08888888888888889,0,0,0.08888888888888889,47.82222222222222,0)" xlink:href="#cg"/><use transform="matrix(0.08888888888888889,0,0,0.08888888888888889,65.6,0)" xlink:href="#ch"/><use transform="matrix(0.08888888888888889,0,0,0.08888888888888889,76.17777777777778,0)" xlink:href="#cf"/><use transform="matrix(0.08888888888888889,0,0,0.08888888888888889,93.95555555555553,0)" xlink:href="#ci"/><use transform="matrix(0.08888888888888889,0,0,0.08888888888888889,120.53333333333333,0)" xlink:href="#cf"/></g><path d="M85-194c31 0 48 13 60 33l-1-100h32l1 261h-30c-2-10 0-23-3-31C134-8 116 4 85 4 32 4 16-35 15-94c0-66 23-100 70-100zm9 24c-40 0-46 34-46 75 0 40 6 74 45 74 42 0 51-32 51-76 0-42-9-74-50-73" id="cj"/><path d="M100-194c63 0 86 42 84 106H49c0 40 14 67 53 68 26 1 43-12 49-29l28 8c-11 28-37 45-77 45C44 4 14-33 15-96c1-61 26-98 85-98zm52 81c6-60-76-77-97-28-3 7-6 17-6 28h103" id="ck"/><g id="ao"><use transform="matrix(0.08888888888888889,0,0,0.08888888888888889,0,0)" xlink:href="#cj"/><use transform="matrix(0.08888888888888889,0,0,0.08888888888888889,17.77777777777778,0)" xlink:href="#ck"/></g><path d="M212-179c-10-28-35-45-73-45-59 0-87 40-87 99 0 60 29 101 89 101 43 0 62-24 78-52l27 14C228-24 195 4 139 4 59 4 22-46 18-125c-6-104 99-153 187-111 19 9 31 26 39 46" id="cl"/><path d="M100-194c62-1 85 37 85 99 1 63-27 99-86 99S16-35 15-95c0-66 28-99 85-99zM99-20c44 1 53-31 53-75 0-43-8-75-51-75s-53 32-53 75 10 74 51 75" id="cm"/><path d="M117-194c89-4 53 116 60 194h-32v-121c0-31-8-49-39-48C34-167 62-67 57 0H25l-1-190h30c1 10-1 24 2 32 11-22 29-35 61-36" id="cn"/><path d="M59-47c-2 24 18 29 38 22v24C64 9 27 4 27-40v-127H5v-23h24l9-43h21v43h35v23H59v120" id="co"/><path d="M141 0L90-78 38 0H4l68-98-65-92h35l48 74 47-74h35l-64 92 68 98h-35" id="cp"/><g id="ap"><use transform="matrix(0.08888888888888889,0,0,0.08888888888888889,0,0)" xlink:href="#cl"/><use transform="matrix(0.08888888888888889,0,0,0.08888888888888889,23.022222222222222,0)" xlink:href="#cm"/><use transform="matrix(0.08888888888888889,0,0,0.08888888888888889,40.8,0)" xlink:href="#cn"/><use transform="matrix(0.08888888888888889,0,0,0.08888888888888889,58.57777777777778,0)" xlink:href="#co"/><use transform="matrix(0.08888888888888889,0,0,0.08888888888888889,67.46666666666667,0)" xlink:href="#ck"/><use transform="matrix(0.08888888888888889,0,0,0.08888888888888889,85.24444444444444,0)" xlink:href="#cp"/><use transform="matrix(0.08888888888888889,0,0,0.08888888888888889,101.24444444444445,0)" xlink:href="#co"/><use transform="matrix(0.08888888888888889,0,0,0.08888888888888889,110.13333333333331,0)" xlink:href="#cm"/></g></defs></g></svg>